<svg xmlns="http://www.w3.org/2000/svg" xmlns:xlink="http://www.w3.org/1999/xlink" width="1080" zoomAndPan="magnify" viewBox="0 0 810 809.999993" height="1080" preserveAspectRatio="xMidYMid meet" version="1.2"><defs><clipPath id="e0f39fe831"><path d="M 291 224 L 524.855469 224 L 524.855469 457.703125 L 291 457.703125 Z M 291 224 "/></clipPath><clipPath id="3714ee7d52"><path d="M 415 204.203125 L 473 204.203125 L 473 297 L 415 297 Z M 415 204.203125 "/></clipPath></defs><g id="0d9665e269"><rect x="0" width="810" y="0" height="809.999993" style="fill:#ffffff;fill-opacity:1;stroke:none;"/><rect x="0" width="810" y="0" height="809.999993" style="fill:#ffffff;fill-opacity:1;stroke:none;"/><g clip-rule="nonzero" clip-path="url(#e0f39fe831)"><path style=" stroke:none;fill-rule:nonzero;fill:#335b6b;fill-opacity:1;" d="M 477.347656 247.300781 C 477.195312 247.179688 477.027344 247.09375 476.839844 247.042969 C 476.652344 246.992188 476.464844 246.976562 476.273438 247.003906 C 476.082031 247.027344 475.902344 247.089844 475.734375 247.1875 C 475.566406 247.285156 475.425781 247.414062 475.308594 247.566406 C 475.191406 247.722656 475.113281 247.894531 475.066406 248.082031 C 475.019531 248.273438 475.011719 248.460938 475.042969 248.652344 C 475.074219 248.84375 475.140625 249.023438 475.242188 249.1875 C 475.347656 249.351562 475.476562 249.488281 475.636719 249.597656 C 504.273438 270.898438 520.9375 303.667969 521.371094 339.511719 C 521.515625 351.402344 519.847656 363.03125 516.363281 374.398438 C 514.15625 377.207031 511.964844 380.023438 509.691406 382.78125 C 507.136719 385.957031 504.417969 388.992188 501.542969 391.878906 C 500.890625 392.519531 500.222656 393.140625 499.542969 393.742188 C 499.214844 394.035156 498.882812 394.316406 498.546875 394.59375 L 498.078125 394.972656 L 497.878906 395.132812 C 498.03125 395.011719 497.835938 395.132812 497.796875 395.195312 C 496.152344 396.4375 494.386719 397.515625 492.695312 398.695312 C 490.851562 399.910156 489.191406 401.335938 487.71875 402.976562 C 486.292969 404.632812 485.292969 406.511719 484.71875 408.621094 C 484.171875 410.652344 484.054688 412.710938 484.363281 414.792969 C 484.671875 416.875 485.382812 418.808594 486.496094 420.59375 C 486.792969 421.046875 487.117188 421.472656 487.457031 421.894531 C 484.84375 424.484375 482.109375 426.941406 479.253906 429.265625 C 476.398438 431.589844 473.4375 433.769531 470.371094 435.804688 C 467.300781 437.839844 464.140625 439.71875 460.890625 441.445312 C 457.640625 443.167969 454.3125 444.730469 450.90625 446.132812 C 447.5 447.53125 444.035156 448.761719 440.511719 449.820312 C 436.988281 450.882812 433.417969 451.769531 429.808594 452.480469 C 426.195312 453.191406 422.558594 453.726562 418.894531 454.082031 C 415.230469 454.4375 411.558594 454.613281 407.878906 454.609375 L 407.683594 454.609375 C 404.042969 454.625 400.410156 454.464844 396.785156 454.128906 C 393.164062 453.789062 389.5625 453.28125 385.988281 452.597656 C 382.414062 451.910156 378.878906 451.058594 375.386719 450.03125 C 371.894531 449.007812 368.460938 447.816406 365.082031 446.457031 C 361.707031 445.101562 358.402344 443.582031 355.171875 441.90625 C 351.941406 440.230469 348.800781 438.402344 345.746094 436.421875 C 342.691406 434.445312 339.738281 432.320312 336.890625 430.054688 C 334.039062 427.792969 331.308594 425.394531 328.691406 422.867188 C 329.550781 421.363281 330.214844 419.777344 330.679688 418.105469 C 331.140625 416.433594 331.390625 414.734375 331.425781 413 C 331.464844 411.269531 331.285156 409.558594 330.890625 407.871094 C 330.5 406.183594 329.902344 404.570312 329.105469 403.03125 C 327.511719 399.984375 324.996094 397.695312 322.625 395.289062 C 322.03125 394.695312 321.492188 394.101562 320.972656 393.511719 L 320.609375 393.070312 L 320.574219 393.03125 C 320.519531 392.96875 320.472656 392.894531 320.425781 392.828125 C 320.195312 392.519531 319.976562 392.199219 319.773438 391.867188 C 319.578125 391.558594 319.402344 391.242188 319.242188 390.914062 L 319.117188 390.640625 C 319.042969 390.457031 318.980469 390.273438 318.914062 390.082031 C 318.800781 389.738281 318.714844 389.386719 318.648438 389.027344 C 318.648438 388.957031 318.613281 388.863281 318.605469 388.78125 L 318.605469 388.707031 C 318.605469 388.511719 318.605469 388.324219 318.570312 388.117188 C 318.570312 387.808594 318.570312 387.523438 318.613281 387.195312 C 318.613281 387.195312 318.613281 387.226562 318.613281 387.242188 C 318.632812 387.160156 318.644531 387.078125 318.652344 386.996094 C 318.652344 386.835938 318.714844 386.675781 318.753906 386.515625 C 318.824219 386.21875 318.910156 385.929688 319.007812 385.644531 C 319.0625 385.488281 319.121094 385.339844 319.175781 385.1875 L 319.265625 384.984375 C 319.832031 383.785156 320.519531 382.660156 321.328125 381.605469 C 321.378906 381.535156 321.441406 381.464844 321.488281 381.394531 L 321.773438 381.03125 L 322.460938 380.191406 C 322.898438 379.648438 323.34375 379.121094 323.777344 378.582031 C 324.707031 377.476562 325.558594 376.308594 326.332031 375.085938 C 327.847656 372.566406 328.617188 369.554688 327.683594 366.679688 C 326.574219 363.304688 323.640625 360.882812 320.53125 359.375 C 316.84375 357.671875 312.972656 356.726562 308.914062 356.535156 C 304.792969 356.28125 300.753906 356.75 296.800781 357.941406 C 296.285156 358.09375 295.78125 358.265625 295.285156 358.445312 C 294.4375 352.898438 293.996094 347.316406 293.957031 341.703125 C 293.84375 328.359375 296.015625 315.398438 300.476562 302.820312 C 300.792969 301.957031 301.207031 301.140625 301.722656 300.375 C 302.234375 299.609375 302.828125 298.917969 303.507812 298.292969 C 304.1875 297.671875 304.933594 297.140625 305.738281 296.695312 C 306.546875 296.253906 307.394531 295.910156 308.285156 295.671875 C 313.097656 294.328125 316.722656 294.316406 318.46875 295.671875 C 319.4375 296.402344 319.90625 297.597656 319.90625 299.320312 C 319.90625 304.949219 317.320312 310.351562 314.570312 316.070312 C 311.820312 321.792969 308.96875 327.777344 308.96875 334.0625 C 308.96875 337.476562 309.300781 341.113281 311.757812 342.132812 C 315.136719 343.53125 319.855469 339.582031 333.253906 326.183594 C 341.007812 318.429688 348.507812 316.699219 354.53125 315.28125 C 361.414062 313.683594 367.359375 312.320312 369.378906 302.75 C 371.210938 294.078125 368.0625 285.730469 365.289062 278.363281 C 362.609375 271.25 360.085938 264.566406 362.363281 258.800781 C 364.871094 252.445312 367.636719 249.796875 370.007812 248.035156 C 370.621094 247.589844 371.195312 247.101562 371.734375 246.570312 C 372.269531 246.035156 372.757812 245.460938 373.203125 244.851562 C 373.648438 244.238281 374.042969 243.59375 374.386719 242.921875 C 374.726562 242.246094 375.015625 241.550781 375.246094 240.828125 C 375.480469 240.109375 375.652344 239.375 375.769531 238.628906 C 375.882812 237.878906 375.941406 237.128906 375.9375 236.371094 C 375.933594 235.617188 375.867188 234.863281 375.746094 234.117188 C 375.621094 233.371094 375.441406 232.640625 375.203125 231.921875 C 384.976562 229.023438 394.957031 227.464844 405.152344 227.246094 L 405.1875 227.246094 C 406.371094 227.246094 407.5 227.207031 408.652344 227.246094 C 408.84375 227.246094 409.027344 227.207031 409.203125 227.136719 C 409.378906 227.0625 409.535156 226.957031 409.667969 226.824219 C 409.804688 226.691406 409.90625 226.535156 409.980469 226.359375 C 410.050781 226.183594 410.089844 226 410.089844 225.808594 C 410.089844 225.621094 410.050781 225.4375 409.980469 225.261719 C 409.90625 225.085938 409.804688 224.929688 409.667969 224.796875 C 409.535156 224.660156 409.378906 224.558594 409.203125 224.484375 C 409.027344 224.410156 408.84375 224.375 408.652344 224.375 L 407.386719 224.375 C 403.40625 224.378906 399.4375 224.582031 395.480469 224.992188 C 391.523438 225.402344 387.597656 226.011719 383.703125 226.820312 C 379.804688 227.632812 375.960938 228.640625 372.171875 229.84375 C 368.378906 231.050781 364.660156 232.445312 361.007812 234.03125 C 357.359375 235.617188 353.800781 237.382812 350.332031 239.332031 C 346.867188 241.285156 343.503906 243.40625 340.253906 245.699219 C 337.003906 247.992188 333.878906 250.449219 330.878906 253.0625 C 327.878906 255.675781 325.023438 258.4375 322.304688 261.34375 C 322.171875 261.480469 322.070312 261.640625 322.003906 261.820312 C 321.933594 262 321.902344 262.183594 321.90625 262.375 C 321.914062 262.566406 321.957031 262.75 322.035156 262.925781 C 322.113281 263.101562 322.222656 263.253906 322.363281 263.382812 C 322.503906 263.515625 322.664062 263.613281 322.84375 263.679688 C 323.023438 263.746094 323.210938 263.777344 323.402344 263.769531 C 323.59375 263.761719 323.777344 263.714844 323.949219 263.632812 C 324.125 263.554688 324.273438 263.441406 324.402344 263.300781 C 330.980469 256.25 338.335938 250.140625 346.46875 244.964844 C 354.601562 239.785156 363.25 235.710938 372.421875 232.738281 C 372.617188 233.316406 372.765625 233.90625 372.867188 234.503906 C 372.96875 235.105469 373.023438 235.710938 373.03125 236.316406 C 373.035156 236.925781 372.992188 237.53125 372.902344 238.132812 C 372.808594 238.734375 372.671875 239.328125 372.484375 239.90625 C 372.300781 240.488281 372.070312 241.046875 371.792969 241.589844 C 371.519531 242.132812 371.203125 242.652344 370.84375 243.144531 C 370.488281 243.636719 370.09375 244.097656 369.660156 244.527344 C 369.230469 244.957031 368.765625 245.347656 368.273438 245.703125 C 365.574219 247.703125 362.445312 250.691406 359.664062 257.722656 C 356.984375 264.515625 359.699219 271.722656 362.574219 279.347656 C 365.34375 286.6875 368.207031 294.273438 366.546875 302.128906 C 364.90625 309.882812 360.742188 310.855469 353.855469 312.453125 C 347.476562 313.941406 339.53125 315.785156 331.203125 324.121094 C 324.742188 330.578125 314.988281 340.324219 312.828125 339.445312 C 312.65625 339.375 311.808594 338.78125 311.808594 334.035156 C 311.808594 328.402344 314.390625 323 317.140625 317.28125 C 319.894531 311.558594 322.75 305.574219 322.75 299.289062 C 322.75 296.644531 321.882812 294.648438 320.183594 293.359375 C 317.628906 291.421875 313.355469 291.269531 307.484375 292.910156 C 306.375 293.214844 305.320312 293.648438 304.316406 294.207031 C 303.3125 294.765625 302.386719 295.4375 301.542969 296.21875 C 300.699219 297 299.960938 297.867188 299.324219 298.824219 C 298.691406 299.785156 298.175781 300.804688 297.785156 301.886719 C 297.003906 304.074219 296.289062 306.285156 295.640625 308.515625 C 294.988281 310.746094 294.40625 312.996094 293.894531 315.265625 C 293.378906 317.53125 292.929688 319.808594 292.554688 322.105469 C 292.175781 324.398438 291.867188 326.699219 291.625 329.011719 C 291.386719 331.324219 291.214844 333.640625 291.113281 335.960938 C 291.011719 338.285156 290.980469 340.609375 291.015625 342.933594 C 291.054688 345.257812 291.160156 347.578125 291.335938 349.894531 C 291.515625 352.210938 291.757812 354.523438 292.074219 356.824219 C 292.390625 359.128906 292.773438 361.421875 293.226562 363.699219 C 293.675781 365.980469 294.195312 368.246094 294.785156 370.492188 C 295.371094 372.742188 296.027344 374.972656 296.75 377.179688 C 297.46875 379.390625 298.257812 381.578125 299.109375 383.738281 C 299.960938 385.902344 300.875 388.035156 301.855469 390.144531 C 302.835938 392.25 303.878906 394.328125 304.984375 396.375 C 306.085938 398.417969 307.253906 400.429688 308.476562 402.40625 C 309.703125 404.378906 310.984375 406.316406 312.324219 408.214844 C 313.667969 410.113281 315.0625 411.972656 316.515625 413.785156 C 317.96875 415.601562 319.472656 417.371094 321.03125 419.097656 C 322.589844 420.820312 324.195312 422.496094 325.855469 424.125 C 327.511719 425.753906 329.21875 427.332031 330.972656 428.859375 C 332.726562 430.382812 334.523438 431.855469 336.363281 433.277344 C 338.203125 434.695312 340.085938 436.058594 342.007812 437.363281 C 343.933594 438.667969 345.890625 439.917969 347.890625 441.105469 C 349.886719 442.292969 351.917969 443.421875 353.984375 444.488281 C 356.046875 445.554688 358.144531 446.558594 360.269531 447.5 C 362.394531 448.441406 364.546875 449.320312 366.722656 450.132812 C 368.898438 450.945312 371.101562 451.691406 373.324219 452.371094 C 375.546875 453.054688 377.785156 453.667969 380.046875 454.214844 C 382.304688 454.761719 384.578125 455.238281 386.867188 455.648438 C 389.152344 456.0625 391.453125 456.402344 393.757812 456.675781 C 396.066406 456.949219 398.382812 457.152344 400.703125 457.285156 C 403.023438 457.421875 405.347656 457.484375 407.671875 457.480469 L 407.878906 457.480469 C 409.796875 457.476562 411.71875 457.425781 413.636719 457.328125 C 415.554688 457.230469 417.46875 457.085938 419.378906 456.890625 C 421.289062 456.699219 423.195312 456.457031 425.09375 456.171875 C 426.992188 455.882812 428.882812 455.550781 430.765625 455.171875 C 432.648438 454.789062 434.523438 454.363281 436.382812 453.890625 C 438.246094 453.417969 440.09375 452.898438 441.929688 452.332031 C 443.765625 451.769531 445.585938 451.160156 447.390625 450.503906 C 449.195312 449.851562 450.984375 449.152344 452.757812 448.410156 C 454.527344 447.667969 456.28125 446.882812 458.011719 446.050781 C 459.746094 445.222656 461.457031 444.351562 463.144531 443.4375 C 464.835938 442.523438 466.5 441.566406 468.140625 440.570312 C 469.785156 439.574219 471.402344 438.539062 472.992188 437.464844 C 474.582031 436.386719 476.144531 435.273438 477.679688 434.121094 C 479.21875 432.964844 480.722656 431.777344 482.199219 430.546875 C 483.675781 429.320312 485.125 428.054688 486.539062 426.757812 C 487.953125 425.457031 489.332031 424.125 490.683594 422.757812 C 492.03125 421.390625 493.34375 419.988281 494.625 418.558594 C 495.902344 417.125 497.148438 415.660156 498.355469 414.167969 C 499.5625 412.671875 500.730469 411.148438 501.863281 409.597656 C 502.992188 408.046875 504.085938 406.46875 505.140625 404.863281 C 506.195312 403.257812 507.207031 401.625 508.179688 399.96875 C 509.15625 398.3125 510.085938 396.636719 510.976562 394.933594 C 511.867188 393.230469 512.714844 391.507812 513.519531 389.765625 C 514.324219 388.019531 515.085938 386.257812 515.804688 384.476562 C 516.523438 382.695312 517.195312 380.898438 517.824219 379.082031 C 518.453125 377.269531 519.039062 375.4375 519.574219 373.59375 C 520.113281 371.75 520.605469 369.894531 521.054688 368.027344 C 521.5 366.160156 521.902344 364.28125 522.257812 362.394531 C 522.609375 360.507812 522.917969 358.613281 523.179688 356.707031 C 523.4375 354.804688 523.652344 352.898438 523.816406 350.984375 C 523.984375 349.070312 524.101562 347.15625 524.175781 345.234375 C 524.246094 343.316406 524.269531 341.394531 524.246094 339.476562 C 523.800781 302.734375 506.710938 269.132812 477.347656 247.300781 Z M 295.769531 361.355469 C 297.292969 360.792969 298.847656 360.34375 300.4375 360.011719 C 300.90625 359.914062 301.378906 359.828125 301.851562 359.75 L 302.601562 359.636719 L 302.640625 359.636719 L 303.164062 359.570312 C 304.117188 359.472656 305.078125 359.40625 306.042969 359.382812 C 307.011719 359.359375 308.054688 359.382812 309.0625 359.445312 C 309.542969 359.476562 310.015625 359.519531 310.496094 359.570312 L 311.054688 359.636719 L 311.285156 359.671875 L 311.675781 359.730469 C 313.609375 360.03125 315.5 360.503906 317.34375 361.15625 L 317.9375 361.378906 L 318.226562 361.5 C 318.617188 361.660156 319.003906 361.84375 319.375 362.03125 C 320.09375 362.390625 320.785156 362.796875 321.445312 363.253906 C 321.601562 363.367188 321.773438 363.472656 321.921875 363.597656 L 322.167969 363.796875 C 322.496094 364.070312 322.808594 364.355469 323.105469 364.65625 C 323.355469 364.894531 323.582031 365.152344 323.792969 365.421875 C 323.757812 365.375 323.734375 365.351562 323.792969 365.476562 L 323.972656 365.726562 C 324.082031 365.890625 324.195312 366.0625 324.296875 366.242188 C 324.402344 366.414062 324.5 366.589844 324.585938 366.773438 C 324.621094 366.832031 324.652344 366.894531 324.675781 366.957031 C 324.679688 366.972656 324.679688 366.988281 324.675781 367.003906 C 324.859375 367.367188 324.976562 367.75 325.027344 368.148438 C 325.074219 368.300781 325.105469 368.453125 325.121094 368.613281 L 325.121094 368.695312 C 325.128906 368.773438 325.128906 368.847656 325.121094 368.925781 C 325.144531 369.25 325.144531 369.570312 325.121094 369.890625 C 325.121094 370.023438 325.007812 370.574219 325.121094 370.082031 C 325.089844 370.21875 325.078125 370.355469 325.050781 370.484375 C 325.011719 370.804688 324.957031 371.121094 324.882812 371.433594 C 324.800781 371.695312 324.699219 371.945312 324.605469 372.199219 L 324.515625 372.394531 L 324.292969 372.84375 C 323.988281 373.425781 323.648438 373.984375 323.277344 374.523438 C 323.105469 374.777344 322.929688 375.027344 322.742188 375.273438 C 322.648438 375.40625 322.554688 375.535156 322.453125 375.660156 C 322.394531 375.726562 322.347656 375.804688 322.289062 375.875 C 321.453125 376.933594 320.574219 377.964844 319.726562 379.023438 C 318.03125 381.144531 316.3125 383.484375 315.832031 386.222656 C 315.53125 387.816406 315.632812 389.378906 316.132812 390.917969 C 316.71875 392.519531 317.566406 393.964844 318.675781 395.253906 C 319.714844 396.472656 320.816406 397.632812 321.972656 398.738281 C 322.566406 399.332031 323.125 399.875 323.675781 400.464844 C 323.929688 400.738281 324.179688 401.007812 324.421875 401.289062 L 324.824219 401.769531 L 324.960938 401.933594 L 325.0625 402.058594 C 325.554688 402.71875 326.003906 403.410156 326.402344 404.132812 C 326.585938 404.464844 326.757812 404.808594 326.921875 405.152344 C 327.007812 405.335938 327.089844 405.515625 327.167969 405.699219 L 327.328125 406.105469 C 327.617188 406.882812 327.859375 407.671875 328.050781 408.476562 C 328.132812 408.851562 328.210938 409.230469 328.28125 409.609375 C 328.28125 409.792969 328.351562 409.988281 328.371094 410.203125 C 328.371094 410.351562 328.398438 410.492188 328.417969 410.640625 C 328.496094 411.445312 328.527344 412.25 328.511719 413.054688 C 328.511719 413.457031 328.484375 413.859375 328.445312 414.242188 C 328.445312 414.460938 328.40625 414.679688 328.382812 414.898438 C 328.382812 414.898438 328.382812 415.054688 328.382812 415.09375 C 328.382812 415.136719 328.382812 415.21875 328.351562 415.277344 C 328.226562 416.078125 328.050781 416.871094 327.824219 417.648438 C 327.710938 418.035156 327.585938 418.414062 327.449219 418.792969 L 327.214844 419.386719 L 327.054688 419.746094 C 326.894531 420.085938 326.726562 420.410156 326.550781 420.738281 C 322.5625 416.707031 318.902344 412.398438 315.570312 407.8125 C 312.234375 403.226562 309.261719 398.417969 306.652344 393.382812 C 304.042969 388.351562 301.828125 383.148438 300.003906 377.78125 C 298.179688 372.410156 296.769531 366.9375 295.769531 361.355469 Z M 487.183594 410.800781 Z M 487.996094 417.292969 L 488.039062 417.394531 C 488.015625 417.359375 488.003906 417.320312 487.996094 417.28125 Z M 489.488281 419.867188 L 489.300781 419.605469 C 489.160156 419.414062 489.03125 419.21875 488.910156 419.011719 C 488.65625 418.617188 488.425781 418.203125 488.222656 417.78125 L 488.0625 417.4375 C 487.964844 417.199219 487.878906 416.960938 487.792969 416.722656 C 487.640625 416.277344 487.511719 415.824219 487.402344 415.367188 C 487.355469 415.152344 487.3125 414.941406 487.273438 414.726562 C 487.273438 414.601562 487.230469 414.484375 487.214844 414.359375 C 487.195312 414.234375 487.214844 414.265625 487.214844 414.246094 C 487.160156 413.777344 487.128906 413.304688 487.117188 412.828125 C 487.105469 412.355469 487.117188 411.886719 487.164062 411.417969 C 487.164062 411.292969 487.164062 411.164062 487.207031 411.039062 L 487.207031 410.984375 C 487.277344 410.742188 487.320312 410.492188 487.332031 410.238281 C 487.425781 409.777344 487.546875 409.320312 487.683594 408.871094 C 487.746094 408.667969 487.816406 408.460938 487.894531 408.277344 C 487.972656 408.09375 487.988281 408.039062 488.03125 407.921875 C 488.074219 407.800781 487.988281 408.011719 487.988281 408.011719 C 488.011719 407.941406 488.042969 407.875 488.078125 407.816406 C 488.273438 407.386719 488.488281 406.96875 488.730469 406.5625 C 488.847656 406.363281 488.980469 406.160156 489.109375 405.972656 L 489.3125 405.6875 L 489.453125 405.492188 C 490.085938 404.695312 490.785156 403.960938 491.550781 403.292969 C 491.9375 402.953125 492.335938 402.628906 492.738281 402.308594 L 492.820312 402.242188 L 493.152344 401.992188 L 493.78125 401.535156 C 495.476562 400.351562 497.242188 399.242188 498.921875 398.019531 C 500.351562 396.960938 501.710938 395.816406 502.992188 394.582031 C 505.820312 391.832031 508.476562 388.929688 510.96875 385.875 C 511.839844 384.832031 512.691406 383.769531 513.546875 382.714844 C 510.796875 389.636719 507.394531 396.21875 503.347656 402.46875 C 499.300781 408.71875 494.679688 414.515625 489.488281 419.855469 Z M 489.488281 419.867188 "/></g><path style=" stroke:none;fill-rule:nonzero;fill:#335b6b;fill-opacity:1;" d="M 403.601562 315.539062 C 404.015625 316.8125 404.644531 317.96875 405.488281 319.003906 C 406.335938 320.042969 407.339844 320.890625 408.507812 321.546875 C 409.816406 322.246094 411.214844 322.660156 412.695312 322.792969 C 414.171875 322.925781 415.621094 322.769531 417.035156 322.320312 C 419.804688 321.472656 422.273438 320.089844 424.441406 318.167969 C 424.925781 318.683594 425.429688 319.195312 425.953125 319.679688 C 428.144531 321.839844 430.742188 323.257812 433.746094 323.933594 C 437.042969 324.585938 440.386719 324.238281 443.707031 324.007812 C 446.710938 323.75 449.699219 323.875 452.671875 324.382812 C 458.410156 325.480469 463.757812 328.171875 467.585938 332.628906 C 468.496094 333.671875 469.296875 334.796875 469.988281 335.996094 C 470.675781 337.199219 471.242188 338.457031 471.683594 339.773438 C 472.125 341.085938 472.429688 342.429688 472.605469 343.804688 C 472.78125 345.179688 472.820312 346.558594 472.726562 347.941406 C 472.605469 349.21875 472.355469 350.46875 471.972656 351.691406 C 471.617188 352.886719 471.136719 354.027344 470.539062 355.121094 C 469.308594 357.417969 467.742188 359.457031 465.84375 361.242188 C 463.925781 363.097656 461.804688 364.679688 459.480469 365.984375 C 457.007812 367.398438 454.402344 368.511719 451.675781 369.328125 C 445.238281 371.328125 438.507812 372.0625 431.832031 372.84375 C 425.585938 373.574219 419.3125 374.367188 413.277344 376.21875 C 407.523438 377.996094 401.984375 380.710938 397.617188 384.921875 C 393.058594 389.308594 390.09375 395.070312 385.429688 399.355469 C 383.390625 401.328125 381.019531 402.742188 378.3125 403.59375 C 376.996094 403.992188 375.652344 404.125 374.28125 403.992188 C 374.164062 403.988281 374.046875 403.976562 373.925781 403.957031 L 373.441406 403.859375 C 373.09375 403.78125 372.75 403.683594 372.414062 403.558594 C 371.890625 403.339844 371.417969 403.035156 371 402.652344 C 370.789062 402.460938 370.613281 402.246094 370.472656 402.003906 C 370.328125 401.769531 370.199219 401.527344 370.085938 401.277344 C 369.960938 400.949219 369.863281 400.617188 369.789062 400.273438 C 369.722656 400 369.679688 399.722656 369.660156 399.445312 C 369.597656 398.75 369.597656 398.058594 369.660156 397.363281 C 369.660156 397.214844 369.6875 397.066406 369.707031 396.917969 C 369.707031 396.878906 369.707031 396.71875 369.746094 396.667969 C 369.796875 396.367188 369.855469 396.078125 369.925781 395.769531 C 370.058594 395.167969 370.222656 394.574219 370.421875 393.988281 C 370.523438 393.707031 370.632812 393.398438 370.742188 393.140625 C 370.746094 393.113281 370.746094 393.082031 370.742188 393.054688 L 370.785156 392.96875 C 370.851562 392.824219 370.914062 392.667969 370.988281 392.519531 C 371.507812 391.410156 372.113281 390.347656 372.800781 389.332031 C 373.144531 388.808594 373.507812 388.300781 373.886719 387.800781 C 374.199219 387.375 374.480469 387 374.921875 386.472656 C 375.734375 385.472656 376.582031 384.5 377.441406 383.507812 C 379.167969 381.554688 380.933594 379.625 382.546875 377.582031 C 384.332031 375.449219 385.792969 373.109375 386.921875 370.566406 C 388.050781 368.023438 388.808594 365.375 389.191406 362.617188 C 390.085938 356.886719 389.820312 351.078125 389.59375 345.300781 C 389.484375 342.421875 389.382812 339.539062 389.441406 336.660156 C 389.476562 335.242188 389.542969 333.832031 389.679688 332.421875 C 389.800781 331.105469 389.996094 329.800781 390.269531 328.507812 C 390.765625 325.914062 391.617188 323.441406 392.824219 321.09375 C 392.917969 320.925781 392.972656 320.75 392.996094 320.5625 C 393.019531 320.375 393.007812 320.1875 392.960938 320.003906 C 392.910156 319.824219 392.832031 319.65625 392.71875 319.503906 C 392.605469 319.351562 392.472656 319.222656 392.308594 319.125 C 392.144531 319.03125 391.96875 318.972656 391.78125 318.945312 C 391.59375 318.921875 391.40625 318.933594 391.222656 318.984375 C 391.039062 319.03125 390.875 319.113281 390.722656 319.226562 C 390.570312 319.339844 390.445312 319.476562 390.347656 319.640625 C 387.566406 324.941406 386.707031 330.902344 386.589844 336.832031 C 386.472656 342.757812 387.039062 348.6875 386.96875 354.617188 C 386.984375 357.476562 386.746094 360.316406 386.265625 363.132812 C 385.765625 365.890625 384.867188 368.511719 383.574219 370.996094 C 381.070312 375.679688 377.304688 379.265625 373.828125 383.359375 C 370.347656 387.457031 367.253906 391.988281 366.777344 397.476562 C 366.511719 400.625 367.441406 404.039062 370.335938 405.703125 C 373.085938 407.285156 376.679688 407.125 379.613281 406.167969 C 385.90625 404.109375 390.082031 398.816406 393.910156 393.71875 C 395.789062 391.046875 397.90625 388.582031 400.261719 386.320312 C 402.480469 384.347656 404.929688 382.71875 407.609375 381.441406 C 412.945312 378.8125 419.085938 377.4375 425.058594 376.542969 C 431.957031 375.511719 438.941406 375.054688 445.804688 373.710938 C 452.011719 372.488281 458.128906 370.484375 463.382812 366.882812 C 468.125 363.648438 472.085938 359.316406 474.199219 353.945312 C 476.441406 348.261719 475.9375 341.949219 473.414062 336.453125 C 472.082031 333.648438 470.304688 331.164062 468.078125 328.996094 C 465.855469 326.832031 463.328125 325.121094 460.488281 323.859375 C 457.511719 322.523438 454.402344 321.65625 451.164062 321.253906 C 447.933594 320.835938 444.738281 321.058594 441.5 321.289062 C 439.804688 321.433594 438.109375 321.46875 436.410156 321.390625 C 435.644531 321.347656 434.886719 321.246094 434.140625 321.074219 C 433.777344 320.996094 433.421875 320.902344 433.066406 320.789062 L 432.472656 320.582031 L 432.074219 320.421875 C 429.949219 319.402344 428.113281 318 426.570312 316.21875 C 428.382812 314.441406 430.085938 312.542969 431.820312 310.757812 C 433.804688 308.582031 436.097656 306.804688 438.699219 305.425781 C 438.859375 305.328125 439 305.203125 439.113281 305.050781 C 439.226562 304.898438 439.308594 304.730469 439.355469 304.546875 C 439.402344 304.363281 439.414062 304.179688 439.390625 303.992188 C 439.367188 303.804688 439.308594 303.628906 439.214844 303.460938 C 439.113281 303.300781 438.988281 303.164062 438.835938 303.050781 C 438.683594 302.9375 438.515625 302.855469 438.332031 302.808594 C 438.148438 302.761719 437.964844 302.75 437.777344 302.773438 C 437.585938 302.796875 437.410156 302.855469 437.246094 302.945312 C 432.089844 305.507812 428.703125 310.226562 424.664062 314.152344 C 423.152344 312.308594 421.464844 310.640625 419.609375 309.148438 C 417.449219 307.550781 415.039062 306.59375 412.371094 306.277344 C 411.117188 306.089844 409.878906 306.175781 408.664062 306.539062 C 407.445312 306.902344 406.363281 307.507812 405.417969 308.351562 C 404.949219 308.808594 404.554688 309.324219 404.230469 309.890625 C 403.902344 310.457031 403.660156 311.058594 403.5 311.691406 C 403.339844 312.324219 403.269531 312.96875 403.285156 313.621094 C 403.304688 314.273438 403.410156 314.914062 403.601562 315.539062 Z M 407.515625 316.949219 C 407.398438 316.804688 407.492188 316.925781 407.515625 316.949219 Z M 406.425781 311.808594 Z M 406.171875 312.769531 C 406.171875 312.851562 406.171875 312.859375 406.171875 312.769531 Z M 406.171875 312.917969 C 406.171875 312.863281 406.171875 312.8125 406.171875 312.757812 C 406.222656 312.507812 406.277344 312.265625 406.355469 312.023438 C 406.355469 311.953125 406.40625 311.878906 406.429688 311.804688 C 406.453125 311.726562 406.554688 311.546875 406.625 311.417969 L 406.835938 311.074219 L 406.96875 310.882812 C 407.140625 310.671875 407.324219 310.472656 407.523438 310.292969 C 407.585938 310.230469 407.660156 310.167969 407.734375 310.109375 L 407.902344 309.984375 C 408.136719 309.828125 408.382812 309.6875 408.636719 309.5625 C 408.691406 309.5625 408.796875 309.492188 408.824219 309.480469 L 409.082031 309.390625 C 409.355469 309.300781 409.632812 309.230469 409.917969 309.171875 L 410.191406 309.125 L 410.402344 309.125 C 410.703125 309.097656 411.003906 309.085938 411.304688 309.09375 C 411.566406 309.09375 411.824219 309.09375 412.085938 309.136719 L 412.324219 309.136719 L 412.769531 309.210938 C 413.355469 309.324219 413.929688 309.476562 414.492188 309.667969 C 414.742188 309.75 414.980469 309.839844 415.222656 309.941406 L 415.511719 310.066406 L 415.957031 310.273438 C 416.496094 310.546875 417.019531 310.847656 417.523438 311.179688 C 417.734375 311.324219 417.945312 311.472656 418.152344 311.625 L 418.382812 311.808594 L 418.738281 312.117188 C 419.253906 312.578125 419.75 313.066406 420.230469 313.570312 C 421.015625 314.375 421.765625 315.21875 422.515625 316.058594 C 420.738281 317.597656 418.734375 318.742188 416.507812 319.492188 C 415.183594 319.90625 413.832031 320.054688 412.449219 319.9375 L 412.289062 319.9375 L 411.890625 319.859375 C 411.578125 319.789062 411.273438 319.699219 410.972656 319.585938 L 410.746094 319.503906 L 410.4375 319.359375 C 410.148438 319.21875 409.867188 319.058594 409.597656 318.886719 C 409.378906 318.75 409.164062 318.601562 408.957031 318.449219 C 408.914062 318.40625 408.753906 318.277344 408.726562 318.253906 C 408.601562 318.144531 408.480469 318.039062 408.371094 317.925781 C 408.160156 317.738281 407.964844 317.542969 407.777344 317.332031 C 407.675781 317.222656 407.582031 317.101562 407.484375 316.984375 L 407.328125 316.769531 C 407.179688 316.546875 407.03125 316.320312 406.898438 316.089844 C 406.824219 315.953125 406.75 315.816406 406.679688 315.679688 C 406.679688 315.632812 406.589844 315.476562 406.5625 315.425781 C 406.367188 314.945312 406.230469 314.453125 406.148438 313.941406 C 406.148438 313.894531 406.148438 313.8125 406.148438 313.757812 C 406.148438 313.707031 406.148438 313.511719 406.148438 313.386719 C 406.148438 313.261719 406.152344 313.058594 406.160156 312.917969 Z M 406.171875 312.917969 "/><path style=" stroke:none;fill-rule:nonzero;fill:#335b6b;fill-opacity:1;" d="M 457.609375 431.027344 C 457.980469 431.027344 458.355469 431.027344 458.722656 431.027344 C 459.027344 431.019531 459.332031 431.039062 459.636719 431.089844 L 459.726562 431.089844 L 459.921875 431.125 C 460.117188 431.164062 460.304688 431.210938 460.511719 431.265625 C 460.667969 431.304688 460.820312 431.355469 460.96875 431.414062 L 461.027344 431.414062 L 461.148438 431.46875 C 461.285156 431.53125 461.421875 431.605469 461.550781 431.6875 L 461.742188 431.8125 C 461.855469 431.90625 461.964844 432.011719 462.066406 432.121094 L 462.183594 432.25 C 462.261719 432.367188 462.339844 432.480469 462.402344 432.605469 C 462.46875 432.730469 462.476562 432.734375 462.503906 432.800781 C 462.507812 432.816406 462.507812 432.828125 462.503906 432.84375 C 462.558594 433.023438 462.648438 433.191406 462.765625 433.339844 C 462.886719 433.488281 463.027344 433.609375 463.191406 433.699219 C 463.359375 433.792969 463.535156 433.851562 463.722656 433.878906 C 463.914062 433.902344 464.097656 433.890625 464.285156 433.84375 C 464.46875 433.792969 464.632812 433.707031 464.785156 433.589844 C 464.933594 433.46875 465.054688 433.328125 465.148438 433.160156 C 465.242188 432.996094 465.300781 432.816406 465.324219 432.628906 C 465.347656 432.4375 465.335938 432.25 465.285156 432.066406 C 464.996094 431.265625 464.550781 430.5625 463.945312 429.960938 C 463.339844 429.359375 462.636719 428.914062 461.835938 428.628906 C 460.355469 428.113281 458.835938 427.941406 457.277344 428.113281 C 455.691406 428.308594 454.132812 428.617188 452.59375 429.039062 C 452.21875 429.121094 451.847656 429.203125 451.46875 429.269531 C 451.28125 429.304688 451.09375 429.339844 450.902344 429.363281 L 450.679688 429.398438 L 450.488281 429.398438 C 449.726562 429.519531 448.960938 429.5625 448.1875 429.527344 L 447.945312 429.527344 C 447.773438 429.5 447.609375 429.457031 447.441406 429.417969 C 447.277344 429.375 447.113281 429.324219 446.957031 429.261719 L 446.867188 429.226562 L 446.796875 429.226562 L 446.664062 429.148438 C 446.515625 429.074219 446.378906 428.976562 446.238281 428.894531 L 446.085938 428.765625 C 445.960938 428.644531 445.847656 428.515625 445.726562 428.398438 L 445.527344 428.082031 C 445.460938 427.96875 445.402344 427.851562 445.34375 427.734375 L 445.34375 427.699219 C 445.253906 427.480469 445.183594 427.261719 445.125 427.035156 C 445 426.589844 444.910156 426.125 444.828125 425.671875 C 444.703125 424.777344 444.507812 423.898438 444.234375 423.039062 C 443.660156 421.519531 442.808594 420.179688 441.671875 419.015625 C 440.539062 417.855469 439.21875 416.972656 437.714844 416.363281 C 436.175781 415.695312 434.574219 415.292969 432.902344 415.148438 C 431.234375 415.003906 429.585938 415.128906 427.957031 415.519531 C 424.15625 416.453125 420.808594 418.632812 417.878906 421.199219 C 415.066406 423.679688 412.734375 426.582031 410.253906 429.375 C 409.035156 430.769531 407.734375 432.078125 406.34375 433.300781 L 405.84375 433.714844 L 405.578125 433.929688 L 405.519531 433.96875 C 405.140625 434.253906 404.746094 434.5625 404.332031 434.792969 C 403.550781 435.304688 402.730469 435.746094 401.871094 436.121094 L 401.832031 436.121094 L 401.746094 436.152344 L 401.402344 436.28125 L 400.640625 436.546875 C 400.148438 436.707031 399.648438 436.84375 399.152344 436.96875 C 398.121094 437.222656 397.078125 437.414062 396.03125 437.5625 C 394.003906 437.839844 391.992188 438.21875 390 438.699219 C 386.660156 439.605469 383.246094 441.445312 381.445312 444.507812 C 380.992188 445.277344 380.667969 446.089844 380.464844 446.957031 C 380.414062 447.140625 380.402344 447.328125 380.425781 447.515625 C 380.449219 447.703125 380.507812 447.882812 380.601562 448.046875 C 380.695312 448.210938 380.820312 448.351562 380.96875 448.46875 C 381.117188 448.585938 381.285156 448.671875 381.46875 448.722656 C 381.652344 448.773438 381.839844 448.785156 382.027344 448.761719 C 382.214844 448.738281 382.394531 448.679688 382.558594 448.585938 C 382.722656 448.492188 382.863281 448.371094 382.980469 448.222656 C 383.097656 448.070312 383.183594 447.90625 383.234375 447.722656 C 383.316406 447.382812 383.417969 447.050781 383.535156 446.726562 C 383.535156 446.761719 383.667969 446.425781 383.703125 446.351562 C 383.808594 446.152344 383.921875 445.953125 384.039062 445.761719 C 384.140625 445.601562 384.25 445.445312 384.355469 445.292969 L 384.542969 445.0625 C 384.804688 444.757812 385.082031 444.472656 385.378906 444.207031 C 385.523438 444.078125 385.671875 443.953125 385.820312 443.828125 L 385.9375 443.738281 L 386.085938 443.625 C 386.421875 443.390625 386.773438 443.164062 387.128906 442.957031 C 387.484375 442.75 387.828125 442.570312 388.183594 442.398438 L 388.675781 442.179688 L 388.777344 442.132812 L 389.167969 441.984375 C 392.820312 440.613281 396.804688 440.585938 400.542969 439.554688 C 402.46875 439.03125 404.265625 438.21875 405.933594 437.125 C 407.5 436.0625 408.941406 434.851562 410.261719 433.496094 C 412.820312 430.917969 415.003906 428.011719 417.558594 425.410156 C 418.210938 424.734375 418.878906 424.082031 419.578125 423.453125 C 419.894531 423.167969 420.214844 422.894531 420.535156 422.621094 L 421.050781 422.195312 L 421.3125 421.988281 L 421.375 421.933594 L 421.441406 421.894531 C 422.886719 420.78125 424.441406 419.851562 426.101562 419.097656 L 426.261719 419.03125 L 426.480469 418.941406 L 427.074219 418.714844 C 427.503906 418.5625 427.945312 418.433594 428.390625 418.3125 C 428.832031 418.195312 429.160156 418.125 429.574219 418.050781 C 429.65625 418.050781 430.226562 417.910156 429.828125 418.011719 C 430.039062 417.96875 430.253906 417.945312 430.46875 417.945312 C 431.191406 417.890625 431.917969 417.890625 432.640625 417.945312 L 433.179688 418 L 433.226562 418 L 433.441406 418.027344 C 433.835938 418.101562 434.222656 418.175781 434.625 418.277344 C 435.027344 418.378906 435.320312 418.46875 435.65625 418.585938 L 436.167969 418.769531 L 436.363281 418.847656 L 436.398438 418.847656 L 436.460938 418.875 C 437.121094 419.175781 437.753906 419.527344 438.359375 419.925781 L 438.691406 420.167969 L 438.980469 420.394531 C 439.265625 420.644531 439.546875 420.902344 439.804688 421.175781 C 439.925781 421.300781 440.039062 421.429688 440.148438 421.5625 L 440.28125 421.714844 C 440.476562 421.996094 440.671875 422.273438 440.84375 422.570312 C 440.996094 422.839844 441.132812 423.121094 441.257812 423.40625 C 441.257812 423.488281 441.367188 423.679688 441.390625 423.738281 C 441.453125 423.9375 441.519531 424.140625 441.574219 424.332031 C 441.816406 425.238281 441.910156 426.175781 442.113281 427.085938 C 442.261719 428.003906 442.597656 428.847656 443.113281 429.621094 C 443.632812 430.390625 444.285156 431.019531 445.078125 431.507812 C 447.957031 433.128906 451.597656 432.351562 454.625 431.542969 C 455.328125 431.324219 456.046875 431.171875 456.777344 431.09375 C 456.371094 431.125 456.9375 431.09375 457.035156 431.09375 Z M 405.578125 433.761719 Z M 445.222656 427.511719 C 445.195312 427.460938 445.222656 427.476562 445.222656 427.511719 Z M 446.789062 429.15625 L 446.921875 429.210938 C 446.921875 429.210938 446.84375 429.183594 446.789062 429.15625 Z M 448.015625 429.5 L 448.136719 429.5 C 448.097656 429.515625 448.058594 429.527344 448.015625 429.527344 Z M 448.015625 429.5 "/><path style=" stroke:none;fill-rule:nonzero;fill:#335b6b;fill-opacity:1;" d="M 321.5 381.410156 L 321.453125 381.46875 C 321.398438 381.511719 321.328125 381.675781 321.5 381.410156 Z M 321.5 381.410156 "/><path style=" stroke:none;fill-rule:nonzero;fill:#335b6b;fill-opacity:1;" d="M 322.472656 375.667969 C 322.226562 375.9375 322.410156 375.742188 322.472656 375.667969 Z M 322.472656 375.667969 "/><path style=" stroke:none;fill-rule:nonzero;fill:#335b6b;fill-opacity:1;" d="M 318.601562 387.171875 C 318.683594 386.847656 318.613281 387.058594 318.601562 387.171875 Z M 318.601562 387.171875 "/><path style=" stroke:none;fill-rule:nonzero;fill:#335b6b;fill-opacity:1;" d="M 420.515625 224.570312 L 420.558594 224.476562 Z M 420.515625 224.570312 "/><g clip-rule="nonzero" clip-path="url(#3714ee7d52)"><path style=" stroke:none;fill-rule:nonzero;fill:#335b6b;fill-opacity:1;" d="M 428.070312 272.433594 C 432.367188 279.429688 436.925781 286.257812 441.207031 293.265625 C 441.8125 294.265625 442.421875 295.269531 443.03125 296.285156 C 443.097656 296.390625 443.171875 296.484375 443.261719 296.570312 C 443.351562 296.65625 443.453125 296.730469 443.558594 296.792969 C 443.667969 296.851562 443.78125 296.898438 443.902344 296.929688 C 444.023438 296.960938 444.144531 296.976562 444.269531 296.976562 C 444.394531 296.976562 444.515625 296.960938 444.636719 296.929688 C 444.757812 296.898438 444.871094 296.851562 444.980469 296.792969 C 445.089844 296.730469 445.1875 296.65625 445.277344 296.570312 C 445.367188 296.484375 445.445312 296.390625 445.507812 296.285156 C 449.746094 290.085938 453.585938 283.652344 457.035156 276.980469 C 458.6875 273.882812 460.300781 270.757812 461.949219 267.65625 C 463.65625 264.445312 465.328125 261.25 466.691406 257.882812 C 469.488281 251.101562 471.195312 244.058594 471.8125 236.753906 C 472.132812 233.277344 472.132812 229.800781 471.8125 226.324219 C 471.5625 223.382812 470.816406 220.574219 469.570312 217.894531 C 468.300781 215.316406 466.480469 213.210938 464.113281 211.582031 C 461.324219 209.726562 458.261719 208.640625 454.929688 208.320312 C 453.265625 208.136719 451.613281 208.199219 449.96875 208.507812 C 448.324219 208.820312 446.757812 209.363281 445.277344 210.140625 C 443.808594 210.972656 442.453125 211.960938 441.210938 213.105469 C 440.050781 214.140625 438.992188 215.265625 438.027344 216.484375 C 434.003906 221.582031 431.714844 228.042969 432.507812 234.570312 C 433.28125 240.820312 436.59375 247.335938 442.414062 250.261719 C 445.148438 251.636719 448.519531 252.339844 451.453125 251.164062 C 454.820312 249.820312 456.605469 246.671875 457.609375 243.34375 C 458.609375 240.019531 458.972656 236.101562 457.78125 232.675781 C 457.242188 231.066406 456.378906 229.65625 455.199219 228.4375 C 454.015625 227.222656 452.632812 226.320312 451.039062 225.734375 C 449.519531 225.203125 447.972656 225.097656 446.398438 225.425781 C 446.214844 225.476562 446.046875 225.558594 445.894531 225.679688 C 445.746094 225.796875 445.621094 225.9375 445.527344 226.105469 C 445.433594 226.273438 445.375 226.449219 445.351562 226.640625 C 445.332031 226.832031 445.34375 227.019531 445.398438 227.203125 C 445.449219 227.386719 445.539062 227.550781 445.65625 227.699219 C 445.773438 227.847656 445.917969 227.96875 446.082031 228.066406 C 446.25 228.160156 446.425781 228.21875 446.613281 228.242188 C 446.804688 228.269531 446.992188 228.257812 447.175781 228.210938 C 447.234375 228.210938 447.546875 228.15625 447.53125 228.152344 L 447.953125 228.152344 C 448.261719 228.148438 448.574219 228.160156 448.882812 228.191406 L 449.230469 228.253906 C 449.402344 228.289062 449.570312 228.324219 449.734375 228.371094 L 450.164062 228.507812 L 450.542969 228.648438 C 451.144531 228.917969 451.714844 229.25 452.242188 229.644531 L 452.523438 229.871094 L 452.867188 230.179688 C 453.140625 230.4375 453.398438 230.714844 453.640625 231.003906 L 453.789062 231.191406 L 453.828125 231.234375 C 453.914062 231.363281 454.003906 231.488281 454.085938 231.621094 C 454.296875 231.929688 454.484375 232.253906 454.648438 232.589844 C 454.789062 232.855469 454.90625 233.128906 455 233.410156 C 455.140625 233.820312 455.265625 234.234375 455.367188 234.65625 C 455.550781 235.375 455.648438 236.109375 455.664062 236.855469 C 455.691406 237.683594 455.660156 238.507812 455.5625 239.332031 C 455.5625 239.410156 455.5625 239.484375 455.5625 239.5625 C 455.5625 239.585938 455.5625 239.605469 455.5625 239.628906 C 455.527344 239.835938 455.5 240.039062 455.457031 240.222656 C 455.386719 240.628906 455.296875 241.035156 455.195312 241.441406 C 455.003906 242.226562 454.769531 242.992188 454.492188 243.75 C 454.425781 243.933594 454.355469 244.117188 454.28125 244.292969 L 454.28125 244.328125 L 454.117188 244.574219 C 453.9375 244.945312 453.742188 245.308594 453.523438 245.664062 C 453.199219 246.28125 452.78125 246.824219 452.273438 247.300781 C 452.136719 247.429688 452 247.554688 451.851562 247.679688 L 451.816406 247.679688 L 451.652344 247.796875 C 451.355469 248.003906 451.046875 248.183594 450.71875 248.335938 L 450.589844 248.402344 L 450.546875 248.402344 L 450.078125 248.5625 C 449.75 248.65625 449.414062 248.734375 449.070312 248.789062 L 448.875 248.789062 C 448.710938 248.789062 448.542969 248.789062 448.371094 248.789062 C 448.015625 248.796875 447.65625 248.785156 447.300781 248.75 L 447.007812 248.714844 L 446.601562 248.640625 C 446.257812 248.574219 445.917969 248.484375 445.585938 248.390625 C 445.253906 248.296875 444.917969 248.164062 444.585938 248.039062 L 444.511719 248.128906 L 444.347656 248.050781 C 444.179688 247.980469 444.019531 247.902344 443.859375 247.820312 C 443.222656 247.5 442.613281 247.132812 442.03125 246.71875 L 441.734375 246.492188 L 441.382812 246.207031 C 441.109375 245.976562 440.851562 245.734375 440.601562 245.484375 C 440.082031 244.96875 439.597656 244.421875 439.140625 243.847656 L 439.105469 243.800781 L 438.941406 243.578125 L 438.621094 243.132812 C 438.414062 242.828125 438.21875 242.539062 438.027344 242.199219 C 437.644531 241.574219 437.296875 240.925781 436.992188 240.257812 L 436.792969 239.816406 L 436.671875 239.523438 C 436.527344 239.160156 436.398438 238.792969 436.273438 238.417969 C 436.039062 237.71875 435.839844 237.007812 435.679688 236.285156 C 435.609375 235.945312 435.542969 235.601562 435.484375 235.265625 C 435.449219 235.082031 435.425781 234.898438 435.394531 234.714844 C 435.394531 234.59375 435.394531 234.472656 435.347656 234.351562 C 435.269531 233.617188 435.230469 232.875 435.222656 232.136719 C 435.21875 231.394531 435.253906 230.65625 435.324219 229.917969 L 435.378906 229.4375 L 435.378906 229.394531 L 435.414062 229.136719 C 435.472656 228.761719 435.539062 228.394531 435.613281 228.03125 C 435.769531 227.296875 435.957031 226.574219 436.179688 225.863281 C 436.285156 225.53125 436.398438 225.199219 436.515625 224.875 C 436.582031 224.695312 436.648438 224.523438 436.71875 224.34375 C 436.746094 224.261719 436.78125 224.171875 436.820312 224.089844 L 436.820312 223.976562 C 437.410156 222.601562 438.121094 221.289062 438.953125 220.042969 C 439.140625 219.75 439.34375 219.449219 439.546875 219.175781 C 439.652344 219.023438 439.765625 218.875 439.878906 218.726562 L 439.941406 218.636719 L 440.132812 218.40625 C 440.601562 217.8125 441.09375 217.253906 441.613281 216.710938 C 442.136719 216.164062 442.640625 215.679688 443.179688 215.191406 C 443.457031 214.945312 443.773438 214.699219 444.03125 214.457031 L 444.472656 214.109375 L 444.546875 214.046875 L 444.738281 213.90625 C 445.351562 213.441406 445.996094 213.027344 446.671875 212.660156 C 446.992188 212.488281 447.316406 212.328125 447.648438 212.179688 C 447.707031 212.179688 447.902344 212.082031 447.941406 212.0625 L 448.53125 211.847656 C 449.25 211.613281 449.976562 211.433594 450.71875 211.304688 L 451.097656 211.25 C 451.265625 211.226562 451.429688 211.210938 451.597656 211.195312 C 451.972656 211.160156 452.351562 211.144531 452.730469 211.136719 C 455.710938 211.082031 458.515625 211.753906 461.148438 213.152344 C 461.742188 213.472656 462.316406 213.828125 462.867188 214.21875 L 463.199219 214.46875 L 463.382812 214.625 C 463.652344 214.84375 463.90625 215.070312 464.148438 215.300781 C 464.585938 215.71875 465 216.164062 465.378906 216.640625 C 465.425781 216.699219 465.476562 216.75 465.515625 216.8125 C 465.59375 216.921875 465.683594 217.03125 465.757812 217.136719 C 465.949219 217.410156 466.132812 217.6875 466.304688 217.96875 C 466.636719 218.5 466.933594 219.050781 467.199219 219.621094 C 467.265625 219.761719 467.324219 219.910156 467.394531 220.054688 C 467.417969 220.101562 467.4375 220.148438 467.453125 220.195312 C 467.585938 220.511719 467.703125 220.832031 467.8125 221.152344 C 468.234375 222.40625 468.550781 223.6875 468.757812 224.996094 C 468.757812 225.144531 468.800781 225.292969 468.824219 225.441406 C 468.824219 225.496094 468.824219 225.550781 468.824219 225.601562 C 468.828125 225.632812 468.828125 225.664062 468.824219 225.699219 C 468.867188 226.042969 468.90625 226.386719 468.9375 226.734375 C 469.007812 227.5 469.050781 228.277344 469.078125 229.046875 C 469.144531 230.765625 469.144531 232.484375 469.078125 234.199219 C 468.945312 237.5625 468.539062 240.894531 467.859375 244.191406 C 467.167969 247.570312 466.238281 250.878906 465.066406 254.121094 C 463.929688 257.28125 462.570312 260.339844 460.992188 263.300781 C 459.457031 266.203125 457.90625 269.109375 456.375 272.019531 C 453.109375 278.253906 449.777344 284.46875 445.976562 290.398438 C 445.433594 291.25 444.867188 292.105469 444.300781 292.945312 C 440.332031 286.425781 436.167969 280.039062 432.105469 273.585938 C 430.269531 270.65625 428.464844 267.703125 426.769531 264.691406 C 425.980469 263.269531 425.21875 261.824219 424.492188 260.359375 C 424.144531 259.65625 423.808594 258.945312 423.480469 258.226562 L 423.054688 257.265625 L 422.824219 256.730469 L 422.773438 256.625 C 422.773438 256.589844 422.664062 256.351562 422.652344 256.320312 C 421.472656 253.46875 420.53125 250.539062 419.824219 247.535156 C 419.457031 245.996094 419.152344 244.429688 418.921875 242.859375 L 418.851562 242.359375 C 418.851562 242.359375 418.808594 242.042969 418.796875 241.96875 C 418.742188 241.539062 418.695312 241.105469 418.648438 240.671875 C 418.566406 239.835938 418.496094 238.992188 418.449219 238.144531 C 418.324219 236.425781 418.324219 234.703125 418.449219 232.984375 C 418.449219 232.578125 418.519531 232.183594 418.566406 231.796875 C 418.566406 231.71875 418.621094 231.4375 418.566406 231.738281 L 418.601562 231.484375 C 418.636719 231.234375 418.679688 230.984375 418.726562 230.730469 C 418.875 229.894531 419.058594 229.070312 419.285156 228.253906 C 419.507812 227.433594 419.761719 226.621094 420.054688 225.828125 C 420.195312 225.425781 420.355469 225.035156 420.515625 224.640625 C 420.53125 224.613281 420.546875 224.578125 420.558594 224.546875 C 420.585938 224.488281 420.609375 224.421875 420.640625 224.363281 C 420.734375 224.144531 420.832031 223.9375 420.929688 223.722656 C 421.65625 222.175781 422.5 220.699219 423.460938 219.289062 C 423.707031 218.9375 423.949219 218.589844 424.203125 218.246094 L 424.359375 218.042969 L 424.488281 217.871094 C 424.535156 217.8125 424.605469 217.71875 424.605469 217.722656 L 424.84375 217.425781 C 425.386719 216.761719 425.949219 216.125 426.535156 215.507812 C 427.125 214.914062 427.71875 214.320312 428.371094 213.726562 C 428.683594 213.445312 429.011719 213.171875 429.335938 212.898438 L 429.789062 212.535156 L 429.960938 212.402344 L 430.148438 212.253906 C 431.511719 211.230469 432.949219 210.328125 434.464844 209.550781 C 434.839844 209.359375 435.222656 209.167969 435.609375 208.992188 L 436.203125 208.738281 L 436.273438 208.738281 L 436.5625 208.617188 C 437.351562 208.296875 438.160156 208.027344 438.96875 207.777344 C 439.78125 207.527344 440.617188 207.332031 441.453125 207.183594 C 441.636719 207.132812 441.804688 207.046875 441.957031 206.929688 C 442.105469 206.808594 442.230469 206.667969 442.324219 206.5 C 442.417969 206.335938 442.476562 206.15625 442.496094 205.964844 C 442.519531 205.777344 442.507812 205.589844 442.457031 205.40625 C 442.402344 205.222656 442.316406 205.058594 442.195312 204.910156 C 442.078125 204.761719 441.933594 204.640625 441.769531 204.546875 C 441.601562 204.453125 441.425781 204.394531 441.238281 204.367188 C 441.046875 204.34375 440.863281 204.355469 440.679688 204.402344 C 437.175781 205.152344 433.898438 206.464844 430.84375 208.339844 C 427.792969 210.214844 425.144531 212.546875 422.894531 215.335938 C 418.339844 220.890625 415.5 227.867188 415.472656 235.097656 C 415.472656 241.84375 416.636719 248.375 418.96875 254.703125 C 421.28125 260.890625 424.570312 266.761719 428.070312 272.433594 Z M 453.753906 231.140625 Z M 453.753906 231.140625 "/></g><g style="fill:#335b6b;fill-opacity:1;"><g transform="translate(212.789055, 548.96008)"><path style="stroke:none" d="M 3.75 -0.859375 L 4.1875 -0.859375 C 4.582031 -0.859375 4.945312 -1.023438 5.28125 -1.359375 C 5.625 -1.703125 5.921875 -2.097656 6.171875 -2.546875 C 6.429688 -3.003906 6.617188 -3.503906 6.734375 -4.046875 C 6.847656 -4.585938 6.90625 -5.085938 6.90625 -5.546875 L 6.90625 -51.015625 C 6.90625 -51.410156 6.847656 -51.863281 6.734375 -52.375 C 6.617188 -52.894531 6.445312 -53.378906 6.21875 -53.828125 C 6 -54.285156 5.71875 -54.671875 5.375 -54.984375 C 5.03125 -55.296875 4.632812 -55.453125 4.1875 -55.453125 L 3.75 -55.453125 L 3.75 -56.3125 L 20.21875 -56.3125 C 24.707031 -56.3125 28.742188 -55.523438 32.328125 -53.953125 C 35.910156 -52.390625 38.9375 -50.285156 41.40625 -47.640625 C 43.882812 -45.003906 45.78125 -41.976562 47.09375 -38.5625 C 48.40625 -35.144531 49.0625 -31.585938 49.0625 -27.890625 C 49.0625 -24.421875 48.429688 -21.023438 47.171875 -17.703125 C 45.921875 -14.378906 44.046875 -11.40625 41.546875 -8.78125 C 39.046875 -6.164062 35.914062 -4.046875 32.15625 -2.421875 C 28.40625 -0.804688 24.054688 0 19.109375 0 L 3.75 0 Z M 43.25 -26.625 C 43.25 -30.257812 42.59375 -33.695312 41.28125 -36.9375 C 39.976562 -40.175781 38.144531 -43.003906 35.78125 -45.421875 C 33.425781 -47.847656 30.640625 -49.769531 27.421875 -51.1875 C 24.210938 -52.613281 20.734375 -53.328125 16.984375 -53.328125 L 12.625 -53.328125 L 12.625 -2.984375 L 17.140625 -2.984375 C 20.210938 -2.984375 23.296875 -3.453125 26.390625 -4.390625 C 29.492188 -5.328125 32.296875 -6.773438 34.796875 -8.734375 C 37.304688 -10.703125 39.34375 -13.164062 40.90625 -16.125 C 42.46875 -19.082031 43.25 -22.582031 43.25 -26.625 Z M 43.25 -26.625 "/></g></g><g style="fill:#335b6b;fill-opacity:1;"><g transform="translate(265.341547, 548.96008)"><path style="stroke:none" d="M 26.359375 0 L 26.359375 -4.34375 L 25.9375 -3.921875 C 24.507812 -2.503906 22.867188 -1.394531 21.015625 -0.59375 C 19.171875 0.195312 16.941406 0.59375 14.328125 0.59375 C 12.335938 0.59375 10.628906 0.367188 9.203125 -0.078125 C 7.785156 -0.535156 6.617188 -1.175781 5.703125 -2 C 4.796875 -2.820312 4.128906 -3.773438 3.703125 -4.859375 C 3.285156 -5.941406 3.078125 -7.082031 3.078125 -8.28125 C 3.078125 -10.207031 3.601562 -11.910156 4.65625 -13.390625 C 5.707031 -14.867188 7.226562 -16.175781 9.21875 -17.3125 C 11.207031 -18.457031 13.632812 -19.5 16.5 -20.4375 C 19.375 -21.375 22.660156 -22.296875 26.359375 -23.203125 C 26.242188 -25.421875 25.785156 -27.210938 24.984375 -28.578125 C 24.191406 -29.941406 23.253906 -31.007812 22.171875 -31.78125 C 21.097656 -32.550781 19.960938 -33.0625 18.765625 -33.3125 C 17.578125 -33.570312 16.554688 -33.703125 15.703125 -33.703125 C 14.222656 -33.703125 12.925781 -33.472656 11.8125 -33.015625 C 10.707031 -32.554688 9.738281 -31.972656 8.90625 -31.265625 C 8.082031 -30.554688 7.382812 -29.789062 6.8125 -28.96875 C 6.25 -28.144531 5.796875 -27.363281 5.453125 -26.625 L 4.6875 -26.625 L 4.6875 -32.84375 C 5.144531 -32.90625 5.570312 -33.046875 5.96875 -33.265625 C 6.363281 -33.492188 6.847656 -33.722656 7.421875 -33.953125 C 8.273438 -34.296875 9.441406 -34.789062 10.921875 -35.4375 C 12.398438 -36.09375 14.472656 -36.421875 17.140625 -36.421875 C 20.273438 -36.421875 22.804688 -36.023438 24.734375 -35.234375 C 26.671875 -34.441406 28.164062 -33.390625 29.21875 -32.078125 C 30.269531 -30.765625 30.96875 -29.269531 31.3125 -27.59375 C 31.65625 -25.914062 31.828125 -24.195312 31.828125 -22.4375 L 31.828125 -5.546875 C 31.828125 -4.410156 32.082031 -3.34375 32.59375 -2.34375 C 33.101562 -1.351562 33.785156 -0.859375 34.640625 -0.859375 L 34.640625 0 Z M 26.359375 -8.109375 L 26.359375 -20.296875 L 25.515625 -20.140625 C 24.148438 -19.796875 22.484375 -19.335938 20.515625 -18.765625 C 18.554688 -18.203125 16.691406 -17.460938 14.921875 -16.546875 C 13.160156 -15.640625 11.65625 -14.5625 10.40625 -13.3125 C 9.15625 -12.0625 8.53125 -10.609375 8.53125 -8.953125 C 8.53125 -7.140625 9.269531 -5.632812 10.75 -4.4375 C 12.226562 -3.238281 14.160156 -2.640625 16.546875 -2.640625 C 18.421875 -2.640625 20.066406 -3.050781 21.484375 -3.875 C 22.910156 -4.707031 24.222656 -5.773438 25.421875 -7.078125 Z M 26.359375 -8.109375 "/></g></g><g style="fill:#335b6b;fill-opacity:1;"><g transform="translate(304.329345, 548.96008)"><path style="stroke:none" d="M 17.484375 12.203125 C 16.691406 14.585938 15.679688 16.207031 14.453125 17.0625 C 13.234375 17.914062 11.972656 18.34375 10.671875 18.34375 C 9.816406 18.34375 9.0625 18.226562 8.40625 18 C 7.75 17.769531 7.175781 17.5 6.6875 17.1875 C 6.207031 16.875 5.828125 16.578125 5.546875 16.296875 C 5.265625 16.015625 5.09375 15.785156 5.03125 15.609375 L 7.84375 8.703125 C 8.132812 9.722656 8.421875 10.488281 8.703125 11 C 8.984375 11.570312 9.378906 12.082031 9.890625 12.53125 C 10.410156 12.988281 11.035156 13.21875 11.765625 13.21875 C 13.140625 13.21875 14.222656 12.222656 15.015625 10.234375 L 19.203125 -0.25 L 5.453125 -31.3125 C 5.171875 -31.988281 4.703125 -32.769531 4.046875 -33.65625 C 3.398438 -34.539062 2.503906 -34.984375 1.359375 -34.984375 L 1.359375 -35.828125 L 12.625 -35.828125 L 12.625 -34.984375 C 12.394531 -34.984375 12.109375 -34.78125 11.765625 -34.375 C 11.429688 -33.976562 11.265625 -33.46875 11.265625 -32.84375 C 11.265625 -32.332031 11.378906 -31.878906 11.609375 -31.484375 L 22.09375 -7.34375 L 32.15625 -32 C 32.332031 -32.394531 32.421875 -32.757812 32.421875 -33.09375 C 32.421875 -33.664062 32.234375 -34.125 31.859375 -34.46875 C 31.492188 -34.8125 31.113281 -34.984375 30.71875 -34.984375 L 30.71875 -35.828125 L 38.984375 -35.828125 L 38.984375 -34.984375 C 38.078125 -34.984375 37.296875 -34.597656 36.640625 -33.828125 C 35.984375 -33.054688 35.457031 -32.1875 35.0625 -31.21875 Z M 17.484375 12.203125 "/></g></g><g style="fill:#335b6b;fill-opacity:1;"><g transform="translate(344.767465, 548.96008)"><path style="stroke:none" d=""/></g></g><g style="fill:#335b6b;fill-opacity:1;"><g transform="translate(366.948712, 548.96008)"><path style="stroke:none" d="M 67.484375 -55.453125 C 66.347656 -55.453125 65.378906 -54.96875 64.578125 -54 C 63.785156 -53.03125 63.242188 -51.976562 62.953125 -50.84375 L 47.4375 0.34375 L 34.125 -41.625 L 20.8125 0.421875 L 5.203125 -50.765625 C 4.921875 -51.835938 4.421875 -52.882812 3.703125 -53.90625 C 2.992188 -54.9375 2.1875 -55.453125 1.28125 -55.453125 L 1.28125 -56.3125 L 13.390625 -56.3125 L 13.390625 -55.453125 C 12.648438 -55.453125 12.035156 -55.148438 11.546875 -54.546875 C 11.066406 -53.953125 10.828125 -53.203125 10.828125 -52.296875 C 10.828125 -52.015625 10.882812 -51.644531 11 -51.1875 L 22.09375 -15.015625 L 35.65625 -56.8125 L 48.71875 -15.09375 L 59.96875 -51.1875 C 59.96875 -51.300781 60.007812 -51.539062 60.09375 -51.90625 C 60.1875 -52.28125 60.234375 -52.582031 60.234375 -52.8125 C 60.234375 -53.601562 60.003906 -54.238281 59.546875 -54.71875 C 59.085938 -55.207031 58.632812 -55.453125 58.1875 -55.453125 L 58.1875 -56.3125 L 67.484375 -56.3125 Z M 67.484375 -55.453125 "/></g></g><g style="fill:#335b6b;fill-opacity:1;"><g transform="translate(435.710568, 548.96008)"><path style="stroke:none" d="M 8.53125 -17.234375 C 8.757812 -15.242188 9.242188 -13.351562 9.984375 -11.5625 C 10.722656 -9.769531 11.703125 -8.191406 12.921875 -6.828125 C 14.148438 -5.460938 15.644531 -4.363281 17.40625 -3.53125 C 19.164062 -2.707031 21.210938 -2.296875 23.546875 -2.296875 C 24.796875 -2.296875 26.117188 -2.476562 27.515625 -2.84375 C 28.910156 -3.21875 30.203125 -3.742188 31.390625 -4.421875 C 32.585938 -5.109375 33.65625 -5.953125 34.59375 -6.953125 C 35.53125 -7.953125 36.171875 -9.078125 36.515625 -10.328125 L 37.28125 -10.328125 L 37.28125 -3.921875 C 36.9375 -3.921875 36.550781 -3.804688 36.125 -3.578125 C 35.695312 -3.347656 35.203125 -3.066406 34.640625 -2.734375 C 33.503906 -2.046875 31.96875 -1.316406 30.03125 -0.546875 C 28.09375 0.210938 25.535156 0.59375 22.359375 0.59375 C 19.796875 0.59375 17.363281 0.222656 15.0625 -0.515625 C 12.757812 -1.253906 10.722656 -2.390625 8.953125 -3.921875 C 7.191406 -5.460938 5.785156 -7.425781 4.734375 -9.8125 C 3.679688 -12.195312 3.15625 -15.039062 3.15625 -18.34375 C 3.15625 -20.445312 3.507812 -22.578125 4.21875 -24.734375 C 4.9375 -26.898438 6.019531 -28.847656 7.46875 -30.578125 C 8.914062 -32.316406 10.773438 -33.722656 13.046875 -34.796875 C 15.328125 -35.878906 18.0625 -36.421875 21.25 -36.421875 C 24.09375 -36.421875 26.578125 -35.9375 28.703125 -34.96875 C 30.835938 -34.007812 32.601562 -32.675781 34 -30.96875 C 35.394531 -29.257812 36.429688 -27.238281 37.109375 -24.90625 C 37.796875 -22.570312 38.140625 -20.015625 38.140625 -17.234375 Z M 20.90625 -33.609375 C 18.914062 -33.609375 17.191406 -33.207031 15.734375 -32.40625 C 14.285156 -31.613281 13.050781 -30.59375 12.03125 -29.34375 C 11.007812 -28.09375 10.210938 -26.671875 9.640625 -25.078125 C 9.066406 -23.484375 8.695312 -21.890625 8.53125 -20.296875 L 32.84375 -20.296875 C 32.789062 -21.953125 32.492188 -23.578125 31.953125 -25.171875 C 31.410156 -26.765625 30.65625 -28.1875 29.6875 -29.4375 C 28.71875 -30.6875 27.492188 -31.691406 26.015625 -32.453125 C 24.535156 -33.222656 22.832031 -33.609375 20.90625 -33.609375 Z M 20.90625 -33.609375 "/></g></g><g style="fill:#335b6b;fill-opacity:1;"><g transform="translate(477.087138, 548.96008)"><path style="stroke:none" d="M 26.359375 0 L 26.359375 -4.34375 L 25.9375 -3.921875 C 24.507812 -2.503906 22.867188 -1.394531 21.015625 -0.59375 C 19.171875 0.195312 16.941406 0.59375 14.328125 0.59375 C 12.335938 0.59375 10.628906 0.367188 9.203125 -0.078125 C 7.785156 -0.535156 6.617188 -1.175781 5.703125 -2 C 4.796875 -2.820312 4.128906 -3.773438 3.703125 -4.859375 C 3.285156 -5.941406 3.078125 -7.082031 3.078125 -8.28125 C 3.078125 -10.207031 3.601562 -11.910156 4.65625 -13.390625 C 5.707031 -14.867188 7.226562 -16.175781 9.21875 -17.3125 C 11.207031 -18.457031 13.632812 -19.5 16.5 -20.4375 C 19.375 -21.375 22.660156 -22.296875 26.359375 -23.203125 C 26.242188 -25.421875 25.785156 -27.210938 24.984375 -28.578125 C 24.191406 -29.941406 23.253906 -31.007812 22.171875 -31.78125 C 21.097656 -32.550781 19.960938 -33.0625 18.765625 -33.3125 C 17.578125 -33.570312 16.554688 -33.703125 15.703125 -33.703125 C 14.222656 -33.703125 12.925781 -33.472656 11.8125 -33.015625 C 10.707031 -32.554688 9.738281 -31.972656 8.90625 -31.265625 C 8.082031 -30.554688 7.382812 -29.789062 6.8125 -28.96875 C 6.25 -28.144531 5.796875 -27.363281 5.453125 -26.625 L 4.6875 -26.625 L 4.6875 -32.84375 C 5.144531 -32.90625 5.570312 -33.046875 5.96875 -33.265625 C 6.363281 -33.492188 6.847656 -33.722656 7.421875 -33.953125 C 8.273438 -34.296875 9.441406 -34.789062 10.921875 -35.4375 C 12.398438 -36.09375 14.472656 -36.421875 17.140625 -36.421875 C 20.273438 -36.421875 22.804688 -36.023438 24.734375 -35.234375 C 26.671875 -34.441406 28.164062 -33.390625 29.21875 -32.078125 C 30.269531 -30.765625 30.96875 -29.269531 31.3125 -27.59375 C 31.65625 -25.914062 31.828125 -24.195312 31.828125 -22.4375 L 31.828125 -5.546875 C 31.828125 -4.410156 32.082031 -3.34375 32.59375 -2.34375 C 33.101562 -1.351562 33.785156 -0.859375 34.640625 -0.859375 L 34.640625 0 Z M 26.359375 -8.109375 L 26.359375 -20.296875 L 25.515625 -20.140625 C 24.148438 -19.796875 22.484375 -19.335938 20.515625 -18.765625 C 18.554688 -18.203125 16.691406 -17.460938 14.921875 -16.546875 C 13.160156 -15.640625 11.65625 -14.5625 10.40625 -13.3125 C 9.15625 -12.0625 8.53125 -10.609375 8.53125 -8.953125 C 8.53125 -7.140625 9.269531 -5.632812 10.75 -4.4375 C 12.226562 -3.238281 14.160156 -2.640625 16.546875 -2.640625 C 18.421875 -2.640625 20.066406 -3.050781 21.484375 -3.875 C 22.910156 -4.707031 24.222656 -5.773438 25.421875 -7.078125 Z M 26.359375 -8.109375 "/></g></g><g style="fill:#335b6b;fill-opacity:1;"><g transform="translate(516.074914, 548.96008)"><path style="stroke:none" d="M 38.3125 -35.828125 L 38.3125 -34.984375 C 37.90625 -34.984375 37.503906 -34.835938 37.109375 -34.546875 C 36.710938 -34.265625 36.328125 -33.894531 35.953125 -33.4375 C 35.585938 -32.988281 35.25 -32.492188 34.9375 -31.953125 C 34.625 -31.410156 34.351562 -30.910156 34.125 -30.453125 L 19.453125 1.453125 L 4.859375 -30.796875 C 4.460938 -31.703125 3.953125 -32.625 3.328125 -33.5625 C 2.703125 -34.507812 1.90625 -34.984375 0.9375 -34.984375 L 0.9375 -35.828125 L 12.625 -35.828125 L 12.625 -34.984375 C 12.28125 -34.984375 11.835938 -34.8125 11.296875 -34.46875 C 10.765625 -34.125 10.5 -33.640625 10.5 -33.015625 C 10.5 -32.734375 10.722656 -32.078125 11.171875 -31.046875 L 20.984375 -8.953125 L 31.5625 -32 C 31.789062 -32.5625 31.90625 -32.984375 31.90625 -33.265625 C 31.90625 -33.785156 31.660156 -34.203125 31.171875 -34.515625 C 30.691406 -34.828125 30.28125 -34.984375 29.9375 -34.984375 L 29.9375 -35.828125 Z M 38.3125 -35.828125 "/></g></g><g style="fill:#335b6b;fill-opacity:1;"><g transform="translate(555.830542, 548.96008)"><path style="stroke:none" d="M 8.53125 -17.234375 C 8.757812 -15.242188 9.242188 -13.351562 9.984375 -11.5625 C 10.722656 -9.769531 11.703125 -8.191406 12.921875 -6.828125 C 14.148438 -5.460938 15.644531 -4.363281 17.40625 -3.53125 C 19.164062 -2.707031 21.210938 -2.296875 23.546875 -2.296875 C 24.796875 -2.296875 26.117188 -2.476562 27.515625 -2.84375 C 28.910156 -3.21875 30.203125 -3.742188 31.390625 -4.421875 C 32.585938 -5.109375 33.65625 -5.953125 34.59375 -6.953125 C 35.53125 -7.953125 36.171875 -9.078125 36.515625 -10.328125 L 37.28125 -10.328125 L 37.28125 -3.921875 C 36.9375 -3.921875 36.550781 -3.804688 36.125 -3.578125 C 35.695312 -3.347656 35.203125 -3.066406 34.640625 -2.734375 C 33.503906 -2.046875 31.96875 -1.316406 30.03125 -0.546875 C 28.09375 0.210938 25.535156 0.59375 22.359375 0.59375 C 19.796875 0.59375 17.363281 0.222656 15.0625 -0.515625 C 12.757812 -1.253906 10.722656 -2.390625 8.953125 -3.921875 C 7.191406 -5.460938 5.785156 -7.425781 4.734375 -9.8125 C 3.679688 -12.195312 3.15625 -15.039062 3.15625 -18.34375 C 3.15625 -20.445312 3.507812 -22.578125 4.21875 -24.734375 C 4.9375 -26.898438 6.019531 -28.847656 7.46875 -30.578125 C 8.914062 -32.316406 10.773438 -33.722656 13.046875 -34.796875 C 15.328125 -35.878906 18.0625 -36.421875 21.25 -36.421875 C 24.09375 -36.421875 26.578125 -35.9375 28.703125 -34.96875 C 30.835938 -34.007812 32.601562 -32.675781 34 -30.96875 C 35.394531 -29.257812 36.429688 -27.238281 37.109375 -24.90625 C 37.796875 -22.570312 38.140625 -20.015625 38.140625 -17.234375 Z M 20.90625 -33.609375 C 18.914062 -33.609375 17.191406 -33.207031 15.734375 -32.40625 C 14.285156 -31.613281 13.050781 -30.59375 12.03125 -29.34375 C 11.007812 -28.09375 10.210938 -26.671875 9.640625 -25.078125 C 9.066406 -23.484375 8.695312 -21.890625 8.53125 -20.296875 L 32.84375 -20.296875 C 32.789062 -21.953125 32.492188 -23.578125 31.953125 -25.171875 C 31.410156 -26.765625 30.65625 -28.1875 29.6875 -29.4375 C 28.71875 -30.6875 27.492188 -31.691406 26.015625 -32.453125 C 24.535156 -33.222656 22.832031 -33.609375 20.90625 -33.609375 Z M 20.90625 -33.609375 "/></g></g><g style="fill:#335b6b;fill-opacity:1;"><g transform="translate(178.734978, 599.78243)"><path style="stroke:none" d="M 2.25 0 L 2.25 -18.21875 L 4.34375 -18.21875 L 4.34375 -1.796875 L 13.484375 -1.796875 L 13.484375 0 Z M 2.25 0 "/></g></g><g style="fill:#335b6b;fill-opacity:1;"><g transform="translate(195.748691, 599.78243)"><path style="stroke:none" d="M 2.25 0 L 2.25 -18.21875 L 13.765625 -18.21875 L 13.765625 -16.484375 L 4.328125 -16.484375 L 4.328125 -10.140625 L 13.25 -10.140625 L 13.25 -8.375 L 4.328125 -8.375 L 4.328125 -1.734375 L 13.765625 -1.734375 L 13.765625 0 Z M 2.25 0 "/></g></g><g style="fill:#335b6b;fill-opacity:1;"><g transform="translate(213.862433, 599.78243)"><path style="stroke:none" d="M 8.03125 0.203125 C 5.1875 0.203125 2.921875 -0.5625 1.234375 -2.09375 L 2.015625 -3.71875 C 2.921875 -2.945312 3.84375 -2.398438 4.78125 -2.078125 C 5.71875 -1.753906 6.8125 -1.59375 8.0625 -1.59375 C 9.53125 -1.59375 10.660156 -1.875 11.453125 -2.4375 C 12.242188 -3.007812 12.640625 -3.816406 12.640625 -4.859375 C 12.640625 -5.472656 12.445312 -5.972656 12.0625 -6.359375 C 11.675781 -6.742188 11.171875 -7.046875 10.546875 -7.265625 C 9.929688 -7.484375 9.101562 -7.710938 8.0625 -7.953125 C 6.664062 -8.265625 5.515625 -8.597656 4.609375 -8.953125 C 3.703125 -9.316406 2.96875 -9.832031 2.40625 -10.5 C 1.84375 -11.175781 1.5625 -12.0625 1.5625 -13.15625 C 1.5625 -14.195312 1.832031 -15.113281 2.375 -15.90625 C 2.925781 -16.695312 3.695312 -17.3125 4.6875 -17.75 C 5.6875 -18.195312 6.851562 -18.421875 8.1875 -18.421875 C 9.445312 -18.421875 10.625 -18.222656 11.71875 -17.828125 C 12.8125 -17.441406 13.734375 -16.875 14.484375 -16.125 L 13.671875 -14.515625 C 12.816406 -15.242188 11.945312 -15.78125 11.0625 -16.125 C 10.1875 -16.46875 9.226562 -16.640625 8.1875 -16.640625 C 6.769531 -16.640625 5.660156 -16.332031 4.859375 -15.71875 C 4.054688 -15.113281 3.65625 -14.285156 3.65625 -13.234375 C 3.65625 -12.304688 4.003906 -11.613281 4.703125 -11.15625 C 5.410156 -10.695312 6.488281 -10.296875 7.9375 -9.953125 C 9.5 -9.578125 10.726562 -9.234375 11.625 -8.921875 C 12.519531 -8.609375 13.265625 -8.128906 13.859375 -7.484375 C 14.460938 -6.847656 14.765625 -6 14.765625 -4.9375 C 14.765625 -3.914062 14.488281 -3.015625 13.9375 -2.234375 C 13.394531 -1.460938 12.613281 -0.863281 11.59375 -0.4375 C 10.582031 -0.0078125 9.394531 0.203125 8.03125 0.203125 Z M 8.03125 0.203125 "/></g></g><g style="fill:#335b6b;fill-opacity:1;"><g transform="translate(232.871538, 599.78243)"><path style="stroke:none" d="M 8.03125 0.203125 C 5.1875 0.203125 2.921875 -0.5625 1.234375 -2.09375 L 2.015625 -3.71875 C 2.921875 -2.945312 3.84375 -2.398438 4.78125 -2.078125 C 5.71875 -1.753906 6.8125 -1.59375 8.0625 -1.59375 C 9.53125 -1.59375 10.660156 -1.875 11.453125 -2.4375 C 12.242188 -3.007812 12.640625 -3.816406 12.640625 -4.859375 C 12.640625 -5.472656 12.445312 -5.972656 12.0625 -6.359375 C 11.675781 -6.742188 11.171875 -7.046875 10.546875 -7.265625 C 9.929688 -7.484375 9.101562 -7.710938 8.0625 -7.953125 C 6.664062 -8.265625 5.515625 -8.597656 4.609375 -8.953125 C 3.703125 -9.316406 2.96875 -9.832031 2.40625 -10.5 C 1.84375 -11.175781 1.5625 -12.0625 1.5625 -13.15625 C 1.5625 -14.195312 1.832031 -15.113281 2.375 -15.90625 C 2.925781 -16.695312 3.695312 -17.3125 4.6875 -17.75 C 5.6875 -18.195312 6.851562 -18.421875 8.1875 -18.421875 C 9.445312 -18.421875 10.625 -18.222656 11.71875 -17.828125 C 12.8125 -17.441406 13.734375 -16.875 14.484375 -16.125 L 13.671875 -14.515625 C 12.816406 -15.242188 11.945312 -15.78125 11.0625 -16.125 C 10.1875 -16.46875 9.226562 -16.640625 8.1875 -16.640625 C 6.769531 -16.640625 5.660156 -16.332031 4.859375 -15.71875 C 4.054688 -15.113281 3.65625 -14.285156 3.65625 -13.234375 C 3.65625 -12.304688 4.003906 -11.613281 4.703125 -11.15625 C 5.410156 -10.695312 6.488281 -10.296875 7.9375 -9.953125 C 9.5 -9.578125 10.726562 -9.234375 11.625 -8.921875 C 12.519531 -8.609375 13.265625 -8.128906 13.859375 -7.484375 C 14.460938 -6.847656 14.765625 -6 14.765625 -4.9375 C 14.765625 -3.914062 14.488281 -3.015625 13.9375 -2.234375 C 13.394531 -1.460938 12.613281 -0.863281 11.59375 -0.4375 C 10.582031 -0.0078125 9.394531 0.203125 8.03125 0.203125 Z M 8.03125 0.203125 "/></g></g><g style="fill:#335b6b;fill-opacity:1;"><g transform="translate(251.880642, 599.78243)"><path style="stroke:none" d=""/></g></g><g style="fill:#335b6b;fill-opacity:1;"><g transform="translate(261.629062, 599.78243)"><path style="stroke:none" d="M 2.25 -18.21875 L 9.515625 -18.21875 C 11.398438 -18.21875 12.863281 -17.765625 13.90625 -16.859375 C 14.957031 -15.960938 15.484375 -14.71875 15.484375 -13.125 C 15.484375 -11.539062 14.953125 -10.289062 13.890625 -9.375 C 12.835938 -8.46875 11.378906 -8.015625 9.515625 -8.015625 L 4.34375 -8.015625 L 4.34375 0 L 2.25 0 Z M 9.34375 -9.75 C 10.6875 -9.75 11.695312 -10.035156 12.375 -10.609375 C 13.0625 -11.191406 13.40625 -12.03125 13.40625 -13.125 C 13.40625 -14.21875 13.0625 -15.050781 12.375 -15.625 C 11.695312 -16.195312 10.6875 -16.484375 9.34375 -16.484375 L 4.34375 -16.484375 L 4.34375 -9.75 Z M 9.34375 -9.75 "/></g></g><g style="fill:#335b6b;fill-opacity:1;"><g transform="translate(281.354464, 599.78243)"><path style="stroke:none" d="M 2.25 0 L 2.25 -18.21875 L 4.34375 -18.21875 L 4.34375 -1.796875 L 13.484375 -1.796875 L 13.484375 0 Z M 2.25 0 "/></g></g><g style="fill:#335b6b;fill-opacity:1;"><g transform="translate(298.368177, 599.78243)"><path style="stroke:none" d="M 16.171875 0 L 14.171875 -4.6875 L 4.65625 -4.6875 L 2.640625 0 L 0.453125 0 L 8.46875 -18.21875 L 10.3125 -18.21875 L 18.328125 0 Z M 5.40625 -6.421875 L 13.4375 -6.421875 L 9.421875 -15.796875 Z M 5.40625 -6.421875 "/></g></g><g style="fill:#335b6b;fill-opacity:1;"><g transform="translate(320.216893, 599.78243)"><path style="stroke:none" d="M 14.875 -18.21875 L 16.859375 -18.21875 L 16.859375 0 L 15.234375 0 L 4.21875 -14.671875 L 4.21875 0 L 2.25 0 L 2.25 -18.21875 L 3.859375 -18.21875 L 14.875 -3.5625 Z M 14.875 -18.21875 "/></g></g><g style="fill:#335b6b;fill-opacity:1;"><g transform="translate(342.372585, 599.78243)"><path style="stroke:none" d="M 14.875 -18.21875 L 16.859375 -18.21875 L 16.859375 0 L 15.234375 0 L 4.21875 -14.671875 L 4.21875 0 L 2.25 0 L 2.25 -18.21875 L 3.859375 -18.21875 L 14.875 -3.5625 Z M 14.875 -18.21875 "/></g></g><g style="fill:#335b6b;fill-opacity:1;"><g transform="translate(364.528276, 599.78243)"><path style="stroke:none" d="M 2.25 0 L 2.25 -18.21875 L 4.34375 -18.21875 L 4.34375 0 Z M 2.25 0 "/></g></g><g style="fill:#335b6b;fill-opacity:1;"><g transform="translate(374.199964, 599.78243)"><path style="stroke:none" d="M 14.875 -18.21875 L 16.859375 -18.21875 L 16.859375 0 L 15.234375 0 L 4.21875 -14.671875 L 4.21875 0 L 2.25 0 L 2.25 -18.21875 L 3.859375 -18.21875 L 14.875 -3.5625 Z M 14.875 -18.21875 "/></g></g><g style="fill:#335b6b;fill-opacity:1;"><g transform="translate(396.355633, 599.78243)"><path style="stroke:none" d="M 16.65625 -9.5 L 16.65625 -1.046875 C 15.945312 -0.671875 15.007812 -0.367188 13.84375 -0.140625 C 12.6875 0.0859375 11.507812 0.203125 10.3125 0.203125 C 8.5 0.203125 6.9375 -0.164062 5.625 -0.90625 C 4.3125 -1.644531 3.3125 -2.710938 2.625 -4.109375 C 1.9375 -5.515625 1.59375 -7.191406 1.59375 -9.140625 C 1.59375 -11.066406 1.9375 -12.722656 2.625 -14.109375 C 3.3125 -15.503906 4.300781 -16.570312 5.59375 -17.3125 C 6.882812 -18.050781 8.40625 -18.421875 10.15625 -18.421875 C 11.4375 -18.421875 12.609375 -18.226562 13.671875 -17.84375 C 14.742188 -17.46875 15.664062 -16.894531 16.4375 -16.125 L 15.609375 -14.515625 C 14.722656 -15.265625 13.859375 -15.804688 13.015625 -16.140625 C 12.171875 -16.472656 11.21875 -16.640625 10.15625 -16.640625 C 8.09375 -16.640625 6.507812 -15.992188 5.40625 -14.703125 C 4.3125 -13.410156 3.765625 -11.554688 3.765625 -9.140625 C 3.765625 -6.660156 4.328125 -4.773438 5.453125 -3.484375 C 6.578125 -2.203125 8.210938 -1.5625 10.359375 -1.5625 C 11.878906 -1.5625 13.335938 -1.800781 14.734375 -2.28125 L 14.734375 -7.828125 L 10.21875 -7.828125 L 10.21875 -9.5 Z M 16.65625 -9.5 "/></g></g><g style="fill:#335b6b;fill-opacity:1;"><g transform="translate(418.127605, 599.78243)"><path style="stroke:none" d="M 4.28125 -2.640625 L 4.28125 -0.765625 C 4.28125 -0.046875 4.160156 0.609375 3.921875 1.203125 C 3.679688 1.796875 3.28125 2.375 2.71875 2.9375 L 1.734375 2.203125 C 2.398438 1.429688 2.773438 0.695312 2.859375 0 L 1.640625 0 L 1.640625 -2.640625 Z M 4.28125 -2.640625 "/></g></g><g style="fill:#335b6b;fill-opacity:1;"><g transform="translate(427.108562, 599.78243)"><path style="stroke:none" d=""/></g></g><g style="fill:#335b6b;fill-opacity:1;"><g transform="translate(436.857005, 599.78243)"><path style="stroke:none" d="M 17.734375 -18.21875 L 19.484375 -18.21875 L 19.484375 0 L 17.53125 0 L 17.53125 -13.546875 L 11.625 0 L 10.140625 0 L 4.171875 -13.4375 L 4.203125 0 L 2.25 0 L 2.25 -18.21875 L 4 -18.21875 L 10.90625 -2.515625 Z M 17.734375 -18.21875 "/></g></g><g style="fill:#335b6b;fill-opacity:1;"><g transform="translate(461.647653, 599.78243)"><path style="stroke:none" d="M 9.875 0.203125 C 8.1875 0.203125 6.71875 -0.171875 5.46875 -0.921875 C 4.226562 -1.671875 3.269531 -2.75 2.59375 -4.15625 C 1.925781 -5.5625 1.59375 -7.210938 1.59375 -9.109375 C 1.59375 -11.023438 1.921875 -12.679688 2.578125 -14.078125 C 3.242188 -15.472656 4.195312 -16.546875 5.4375 -17.296875 C 6.6875 -18.046875 8.164062 -18.421875 9.875 -18.421875 C 11.582031 -18.421875 13.054688 -18.046875 14.296875 -17.296875 C 15.546875 -16.546875 16.503906 -15.472656 17.171875 -14.078125 C 17.835938 -12.679688 18.171875 -11.035156 18.171875 -9.140625 C 18.171875 -7.222656 17.832031 -5.566406 17.15625 -4.171875 C 16.488281 -2.773438 15.53125 -1.695312 14.28125 -0.9375 C 13.03125 -0.175781 11.5625 0.203125 9.875 0.203125 Z M 9.875 -1.59375 C 11.800781 -1.59375 13.300781 -2.25 14.375 -3.5625 C 15.457031 -4.875 16 -6.734375 16 -9.140625 C 16 -11.546875 15.460938 -13.394531 14.390625 -14.6875 C 13.328125 -15.988281 11.820312 -16.640625 9.875 -16.640625 C 7.9375 -16.640625 6.425781 -15.984375 5.34375 -14.671875 C 4.269531 -13.367188 3.734375 -11.523438 3.734375 -9.140625 C 3.734375 -6.734375 4.269531 -4.875 5.34375 -3.5625 C 6.425781 -2.25 7.9375 -1.59375 9.875 -1.59375 Z M 9.875 -1.59375 "/></g></g><g style="fill:#335b6b;fill-opacity:1;"><g transform="translate(484.468475, 599.78243)"><path style="stroke:none" d="M 16.5625 0 L 14.328125 0 L 12.078125 -6.0625 C 11.804688 -6.8125 11.425781 -7.3125 10.9375 -7.5625 C 10.457031 -7.820312 9.769531 -7.953125 8.875 -7.953125 L 4.328125 -7.953125 L 4.328125 0 L 2.25 0 L 2.25 -18.21875 L 9.5 -18.21875 C 11.457031 -18.21875 12.960938 -17.78125 14.015625 -16.90625 C 15.066406 -16.039062 15.59375 -14.789062 15.59375 -13.15625 C 15.59375 -11.957031 15.28125 -10.953125 14.65625 -10.140625 C 14.03125 -9.335938 13.128906 -8.765625 11.953125 -8.421875 C 12.484375 -8.335938 12.9375 -8.109375 13.3125 -7.734375 C 13.6875 -7.367188 14 -6.847656 14.25 -6.171875 Z M 9.3125 -9.703125 C 12.113281 -9.703125 13.515625 -10.84375 13.515625 -13.125 C 13.515625 -14.25 13.171875 -15.085938 12.484375 -15.640625 C 11.804688 -16.203125 10.75 -16.484375 9.3125 -16.484375 L 4.328125 -16.484375 L 4.328125 -9.703125 Z M 9.3125 -9.703125 "/></g></g><g style="fill:#335b6b;fill-opacity:1;"><g transform="translate(505.268317, 599.78243)"><path style="stroke:none" d="M 2.25 0 L 2.25 -18.21875 L 13.765625 -18.21875 L 13.765625 -16.484375 L 4.328125 -16.484375 L 4.328125 -10.140625 L 13.25 -10.140625 L 13.25 -8.375 L 4.328125 -8.375 L 4.328125 -1.734375 L 13.765625 -1.734375 L 13.765625 0 Z M 2.25 0 "/></g></g><g style="fill:#335b6b;fill-opacity:1;"><g transform="translate(523.38207, 599.78243)"><path style="stroke:none" d=""/></g></g><g style="fill:#335b6b;fill-opacity:1;"><g transform="translate(533.130491, 599.78243)"><path style="stroke:none" d="M 2.25 0 L 2.25 -18.21875 L 4.34375 -18.21875 L 4.34375 -1.796875 L 13.484375 -1.796875 L 13.484375 0 Z M 2.25 0 "/></g></g><g style="fill:#335b6b;fill-opacity:1;"><g transform="translate(550.144215, 599.78243)"><path style="stroke:none" d="M 2.25 0 L 2.25 -18.21875 L 4.34375 -18.21875 L 4.34375 0 Z M 2.25 0 "/></g></g><g style="fill:#335b6b;fill-opacity:1;"><g transform="translate(559.815891, 599.78243)"><path style="stroke:none" d="M 15.640625 -18.21875 L 17.8125 -18.21875 L 9.859375 0 L 8.015625 0 L 0.046875 -18.21875 L 2.28125 -18.21875 L 8.953125 -2.65625 Z M 15.640625 -18.21875 "/></g></g><g style="fill:#335b6b;fill-opacity:1;"><g transform="translate(580.718066, 599.78243)"><path style="stroke:none" d="M 2.25 0 L 2.25 -18.21875 L 4.34375 -18.21875 L 4.34375 0 Z M 2.25 0 "/></g></g><g style="fill:#335b6b;fill-opacity:1;"><g transform="translate(590.389742, 599.78243)"><path style="stroke:none" d="M 14.875 -18.21875 L 16.859375 -18.21875 L 16.859375 0 L 15.234375 0 L 4.21875 -14.671875 L 4.21875 0 L 2.25 0 L 2.25 -18.21875 L 3.859375 -18.21875 L 14.875 -3.5625 Z M 14.875 -18.21875 "/></g></g><g style="fill:#335b6b;fill-opacity:1;"><g transform="translate(612.545412, 599.78243)"><path style="stroke:none" d="M 16.65625 -9.5 L 16.65625 -1.046875 C 15.945312 -0.671875 15.007812 -0.367188 13.84375 -0.140625 C 12.6875 0.0859375 11.507812 0.203125 10.3125 0.203125 C 8.5 0.203125 6.9375 -0.164062 5.625 -0.90625 C 4.3125 -1.644531 3.3125 -2.710938 2.625 -4.109375 C 1.9375 -5.515625 1.59375 -7.191406 1.59375 -9.140625 C 1.59375 -11.066406 1.9375 -12.722656 2.625 -14.109375 C 3.3125 -15.503906 4.300781 -16.570312 5.59375 -17.3125 C 6.882812 -18.050781 8.40625 -18.421875 10.15625 -18.421875 C 11.4375 -18.421875 12.609375 -18.226562 13.671875 -17.84375 C 14.742188 -17.46875 15.664062 -16.894531 16.4375 -16.125 L 15.609375 -14.515625 C 14.722656 -15.265625 13.859375 -15.804688 13.015625 -16.140625 C 12.171875 -16.472656 11.21875 -16.640625 10.15625 -16.640625 C 8.09375 -16.640625 6.507812 -15.992188 5.40625 -14.703125 C 4.3125 -13.410156 3.765625 -11.554688 3.765625 -9.140625 C 3.765625 -6.660156 4.328125 -4.773438 5.453125 -3.484375 C 6.578125 -2.203125 8.210938 -1.5625 10.359375 -1.5625 C 11.878906 -1.5625 13.335938 -1.800781 14.734375 -2.28125 L 14.734375 -7.828125 L 10.21875 -7.828125 L 10.21875 -9.5 Z M 16.65625 -9.5 "/></g></g></g></svg>