<svg xmlns="http://www.w3.org/2000/svg" xmlns:xlink="http://www.w3.org/1999/xlink" width="550" zoomAndPan="magnify" viewBox="0 0 412.5 179.999997" height="240" preserveAspectRatio="xMidYMid meet" version="1.2"><defs><clipPath id="1eb6a469b0"><path d="M 16 54 L 40 54 L 40 81 L 16 81 Z M 16 54 "/></clipPath><clipPath id="e1155e4d43"><path d="M 23.726562 86.785156 L 9.101562 64.128906 L 33.015625 48.691406 L 47.640625 71.347656 Z M 23.726562 86.785156 "/></clipPath><clipPath id="51e475873a"><path d="M 23.726562 86.785156 L 9.101562 64.128906 L 33.015625 48.691406 L 47.640625 71.347656 Z M 23.726562 86.785156 "/></clipPath></defs><g id="3b01b3f457"><g style="fill:#ffffff;fill-opacity:1;"><g transform="translate(55.769771, 88.630032)"><path style="stroke:none" d="M 36.125 -19.609375 C 36.125 -18.460938 36.007812 -17.171875 35.78125 -15.734375 C 35.550781 -14.304688 35.160156 -12.820312 34.609375 -11.28125 C 34.066406 -9.75 33.320312 -8.265625 32.375 -6.828125 C 31.425781 -5.390625 30.226562 -4.097656 28.78125 -2.953125 C 27.332031 -1.804688 25.597656 -0.894531 23.578125 -0.21875 C 21.554688 0.445312 19.1875 0.78125 16.46875 0.78125 C 13.476562 0.78125 10.988281 0.476562 9 -0.125 C 7.019531 -0.738281 5.503906 -1.742188 4.453125 -3.140625 C 3.398438 -4.535156 2.765625 -6.429688 2.546875 -8.828125 C 2.273438 -11.878906 2.144531 -15.691406 2.15625 -20.265625 C 2.164062 -24.847656 2.332031 -29.957031 2.65625 -35.59375 C 3.90625 -36.3125 5.390625 -36.875 7.109375 -37.28125 C 8.828125 -37.695312 10.644531 -37.960938 12.5625 -38.078125 C 14.488281 -38.191406 16.390625 -38.171875 18.265625 -38.015625 C 20.140625 -37.867188 21.851562 -37.617188 23.40625 -37.265625 C 24.96875 -36.921875 26.25 -36.488281 27.25 -35.96875 C 30.269531 -34.375 32.503906 -32.253906 33.953125 -29.609375 C 35.398438 -26.960938 36.125 -23.628906 36.125 -19.609375 Z M 17.359375 -9.6875 C 18.335938 -9.71875 19.28125 -10.050781 20.1875 -10.6875 C 21.101562 -11.320312 21.859375 -12.375 22.453125 -13.84375 C 23.054688 -15.320312 23.359375 -17.320312 23.359375 -19.84375 C 23.359375 -21.6875 23.097656 -23.164062 22.578125 -24.28125 C 22.066406 -25.40625 21.410156 -26.253906 20.609375 -26.828125 C 19.816406 -27.410156 18.972656 -27.773438 18.078125 -27.921875 C 17.179688 -28.066406 16.359375 -28.066406 15.609375 -27.921875 C 15.609375 -27.441406 15.609375 -26.695312 15.609375 -25.6875 C 15.609375 -24.675781 15.597656 -23.507812 15.578125 -22.1875 C 15.566406 -20.863281 15.5625 -19.503906 15.5625 -18.109375 C 15.5625 -16.710938 15.5625 -15.394531 15.5625 -14.15625 C 15.5625 -12.925781 15.578125 -11.890625 15.609375 -11.046875 C 15.628906 -10.472656 15.859375 -10.101562 16.296875 -9.9375 C 16.734375 -9.769531 17.085938 -9.6875 17.359375 -9.6875 Z M 17.359375 -9.6875 "/></g></g><g style="fill:#ffffff;fill-opacity:1;"><g transform="translate(91.51931, 88.630032)"><path style="stroke:none" d="M 0.5625 -11.296875 C 0.863281 -12.796875 1.253906 -14.472656 1.734375 -16.328125 C 2.222656 -18.191406 2.769531 -20.101562 3.375 -22.0625 C 3.988281 -24.019531 4.613281 -25.914062 5.25 -27.75 C 5.894531 -29.582031 6.519531 -31.257812 7.125 -32.78125 C 7.738281 -34.300781 8.285156 -35.523438 8.765625 -36.453125 C 9.785156 -36.804688 11.003906 -37.128906 12.421875 -37.421875 C 13.847656 -37.722656 15.359375 -37.890625 16.953125 -37.921875 C 18.546875 -37.960938 20.128906 -37.757812 21.703125 -37.3125 C 23.273438 -36.863281 24.722656 -36.066406 26.046875 -34.921875 C 27.367188 -33.773438 28.457031 -32.164062 29.3125 -30.09375 C 29.707031 -29.09375 30.164062 -27.8125 30.6875 -26.25 C 31.207031 -24.695312 31.753906 -22.972656 32.328125 -21.078125 C 32.910156 -19.179688 33.472656 -17.226562 34.015625 -15.21875 C 34.566406 -13.207031 35.070312 -11.242188 35.53125 -9.328125 C 36 -7.421875 36.367188 -5.679688 36.640625 -4.109375 C 36.566406 -3.441406 36.21875 -2.773438 35.59375 -2.109375 C 34.96875 -1.453125 34.175781 -0.890625 33.21875 -0.421875 C 32.257812 0.0351562 31.222656 0.335938 30.109375 0.484375 C 28.992188 0.640625 27.890625 0.550781 26.796875 0.21875 C 25.703125 -0.101562 24.710938 -0.738281 23.828125 -1.6875 C 22.941406 -2.632812 22.25 -3.957031 21.75 -5.65625 C 20.570312 -5.695312 19.347656 -5.707031 18.078125 -5.6875 C 16.804688 -5.664062 15.570312 -5.664062 14.375 -5.6875 C 14.050781 -4.914062 13.742188 -4.066406 13.453125 -3.140625 C 13.171875 -2.222656 12.890625 -1.273438 12.609375 -0.296875 C 10.316406 0.546875 8.320312 0.847656 6.625 0.609375 C 4.925781 0.378906 3.554688 -0.269531 2.515625 -1.34375 C 1.484375 -2.414062 0.800781 -3.8125 0.46875 -5.53125 C 0.132812 -7.257812 0.164062 -9.179688 0.5625 -11.296875 Z M 15.828125 -16.390625 C 16.628906 -16.390625 17.40625 -16.390625 18.15625 -16.390625 C 18.90625 -16.390625 19.664062 -16.390625 20.4375 -16.390625 C 20.082031 -17.910156 19.71875 -19.410156 19.34375 -20.890625 C 18.96875 -22.378906 18.609375 -23.875 18.265625 -25.375 C 18.191406 -25.351562 18.078125 -25.34375 17.921875 -25.34375 C 17.597656 -23.863281 17.253906 -22.390625 16.890625 -20.921875 C 16.535156 -19.453125 16.179688 -17.941406 15.828125 -16.390625 Z M 15.828125 -16.390625 "/></g></g><g style="fill:#ffffff;fill-opacity:1;"><g transform="translate(127.044377, 88.630032)"><path style="stroke:none" d="M 18.75 -23.0625 C 18.875 -23.332031 19.117188 -23.894531 19.484375 -24.75 C 19.847656 -25.613281 20.269531 -26.640625 20.75 -27.828125 C 21.238281 -29.015625 21.753906 -30.238281 22.296875 -31.5 C 22.847656 -32.757812 23.375 -33.941406 23.875 -35.046875 C 24.375 -36.160156 24.800781 -37.066406 25.15625 -37.765625 C 26.226562 -38.066406 27.304688 -38.144531 28.390625 -38 C 29.472656 -37.863281 30.46875 -37.546875 31.375 -37.046875 C 32.289062 -36.546875 33.046875 -35.878906 33.640625 -35.046875 C 34.242188 -34.210938 34.59375 -33.238281 34.6875 -32.125 C 34.789062 -31.019531 34.554688 -29.789062 33.984375 -28.4375 C 33.359375 -27 32.734375 -25.660156 32.109375 -24.421875 C 31.484375 -23.179688 30.832031 -21.953125 30.15625 -20.734375 C 29.488281 -19.515625 28.785156 -18.195312 28.046875 -16.78125 C 27.316406 -15.375 26.539062 -13.785156 25.71875 -12.015625 C 25.34375 -11.335938 25.15625 -10.648438 25.15625 -9.953125 C 25.15625 -9.128906 25.15625 -8.226562 25.15625 -7.25 C 25.15625 -6.28125 25.140625 -5.335938 25.109375 -4.421875 C 25.085938 -3.515625 25.066406 -2.75 25.046875 -2.125 C 25.035156 -1.507812 25.03125 -1.125 25.03125 -0.96875 C 24.757812 -0.59375 24.25 -0.269531 23.5 0 C 22.75 0.269531 21.875 0.460938 20.875 0.578125 C 19.882812 0.691406 18.851562 0.671875 17.78125 0.515625 C 16.707031 0.367188 15.703125 0.0664062 14.765625 -0.390625 C 13.828125 -0.847656 13.050781 -1.515625 12.4375 -2.390625 C 11.832031 -3.265625 11.503906 -4.375 11.453125 -5.71875 C 11.453125 -5.945312 11.453125 -6.285156 11.453125 -6.734375 C 11.453125 -7.179688 11.453125 -7.65625 11.453125 -8.15625 C 11.453125 -8.65625 11.457031 -9.097656 11.46875 -9.484375 C 11.476562 -9.867188 11.484375 -10.125 11.484375 -10.25 C 11.460938 -10.570312 11.421875 -10.832031 11.359375 -11.03125 C 11.296875 -11.238281 11.203125 -11.46875 11.078125 -11.71875 C 10.328125 -13.164062 9.492188 -14.785156 8.578125 -16.578125 C 7.671875 -18.378906 6.753906 -20.238281 5.828125 -22.15625 C 4.910156 -24.070312 4.023438 -25.96875 3.171875 -27.84375 C 2.328125 -29.71875 1.566406 -31.460938 0.890625 -33.078125 C 1.390625 -34.273438 2.0625 -35.253906 2.90625 -36.015625 C 3.757812 -36.785156 4.691406 -37.335938 5.703125 -37.671875 C 6.710938 -38.003906 7.710938 -38.144531 8.703125 -38.09375 C 9.691406 -38.050781 10.570312 -37.820312 11.34375 -37.40625 C 12.113281 -37 12.695312 -36.429688 13.09375 -35.703125 C 13.5 -34.953125 13.921875 -34.078125 14.359375 -33.078125 C 14.796875 -32.085938 15.222656 -31.054688 15.640625 -29.984375 C 16.066406 -28.910156 16.476562 -27.867188 16.875 -26.859375 C 17.28125 -25.847656 17.65625 -24.953125 18 -24.171875 C 18.070312 -24.003906 18.144531 -23.832031 18.21875 -23.65625 C 18.300781 -23.476562 18.378906 -23.289062 18.453125 -23.09375 C 18.597656 -23.09375 18.695312 -23.082031 18.75 -23.0625 Z M 18.75 -23.0625 "/></g></g><g style="fill:#ffffff;fill-opacity:1;"><g transform="translate(160.923155, 88.630032)"><path style="stroke:none" d=""/></g></g><g style="fill:#ffffff;fill-opacity:1;"><g transform="translate(178.152156, 88.630032)"><path style="stroke:none" d="M 43.078125 -36.34375 C 44.296875 -36.9375 45.5625 -37.34375 46.875 -37.5625 C 48.1875 -37.789062 49.429688 -37.804688 50.609375 -37.609375 C 51.796875 -37.410156 52.84375 -36.976562 53.75 -36.3125 C 54.664062 -35.65625 55.347656 -34.753906 55.796875 -33.609375 C 56.253906 -32.460938 56.378906 -31.050781 56.171875 -29.375 C 56.046875 -28.332031 55.835938 -27.035156 55.546875 -25.484375 C 55.265625 -23.941406 54.929688 -22.269531 54.546875 -20.46875 C 54.160156 -18.675781 53.742188 -16.835938 53.296875 -14.953125 C 52.847656 -13.066406 52.390625 -11.234375 51.921875 -9.453125 C 51.460938 -7.671875 51.019531 -6.039062 50.59375 -4.5625 C 50.175781 -3.09375 49.789062 -1.867188 49.4375 -0.890625 C 48.59375 -0.617188 47.585938 -0.316406 46.421875 0.015625 C 45.265625 0.359375 44.023438 0.632812 42.703125 0.84375 C 41.378906 1.050781 40.039062 1.117188 38.6875 1.046875 C 37.34375 0.972656 36.066406 0.679688 34.859375 0.171875 C 33.648438 -0.335938 32.578125 -1.164062 31.640625 -2.3125 C 30.703125 -3.46875 29.972656 -5.019531 29.453125 -6.96875 C 29.148438 -8.082031 28.914062 -9.125 28.75 -10.09375 C 28.59375 -11.070312 28.457031 -12.128906 28.34375 -13.265625 C 28.238281 -14.398438 28.097656 -15.765625 27.921875 -17.359375 C 27.816406 -17.359375 27.734375 -17.359375 27.671875 -17.359375 C 27.609375 -17.359375 27.539062 -17.359375 27.46875 -17.359375 C 27.195312 -15.117188 26.882812 -12.582031 26.53125 -9.75 C 26.1875 -6.914062 25.828125 -4.085938 25.453125 -1.265625 C 24.597656 -0.992188 23.601562 -0.695312 22.46875 -0.375 C 21.332031 -0.0507812 20.113281 0.210938 18.8125 0.421875 C 17.519531 0.640625 16.210938 0.722656 14.890625 0.671875 C 13.566406 0.617188 12.28125 0.375 11.03125 -0.0625 C 9.789062 -0.5 8.65625 -1.210938 7.625 -2.203125 C 6.601562 -3.203125 5.742188 -4.550781 5.046875 -6.25 C 4.648438 -7.21875 4.300781 -8.488281 4 -10.0625 C 3.707031 -11.632812 3.4375 -13.394531 3.1875 -15.34375 C 2.9375 -17.289062 2.695312 -19.332031 2.46875 -21.46875 C 2.25 -23.601562 2.035156 -25.722656 1.828125 -27.828125 C 1.628906 -29.929688 1.421875 -31.921875 1.203125 -33.796875 C 1.421875 -34.566406 1.890625 -35.257812 2.609375 -35.875 C 3.335938 -36.488281 4.191406 -36.972656 5.171875 -37.328125 C 6.160156 -37.691406 7.191406 -37.882812 8.265625 -37.90625 C 9.335938 -37.9375 10.359375 -37.769531 11.328125 -37.40625 C 12.304688 -37.039062 13.125 -36.4375 13.78125 -35.59375 C 14.445312 -34.75 14.859375 -33.625 15.015625 -32.21875 C 15.484375 -27.925781 15.734375 -24.144531 15.765625 -20.875 C 15.804688 -17.613281 15.953125 -14.921875 16.203125 -12.796875 C 16.253906 -12.796875 16.3125 -12.796875 16.375 -12.796875 C 16.4375 -12.796875 16.503906 -12.796875 16.578125 -12.796875 C 16.929688 -14.242188 17.28125 -15.691406 17.625 -17.140625 C 17.976562 -18.585938 18.328125 -20.0625 18.671875 -21.5625 C 18.992188 -22.851562 19.359375 -24.269531 19.765625 -25.8125 C 20.179688 -27.363281 20.585938 -28.890625 20.984375 -30.390625 C 21.390625 -31.890625 21.753906 -33.210938 22.078125 -34.359375 C 22.398438 -35.503906 22.625 -36.316406 22.75 -36.796875 C 23.320312 -36.992188 24.03125 -37.191406 24.875 -37.390625 C 25.726562 -37.585938 26.632812 -37.710938 27.59375 -37.765625 C 28.5625 -37.816406 29.492188 -37.734375 30.390625 -37.515625 C 31.285156 -37.304688 32.085938 -36.898438 32.796875 -36.296875 C 33.515625 -35.703125 34.046875 -34.832031 34.390625 -33.6875 C 35.335938 -30.664062 36.265625 -27.359375 37.171875 -23.765625 C 38.085938 -20.171875 39.070312 -16.441406 40.125 -12.578125 C 40.195312 -12.597656 40.304688 -12.609375 40.453125 -12.609375 C 40.660156 -13.753906 40.867188 -15.140625 41.078125 -16.765625 C 41.285156 -18.390625 41.488281 -20.117188 41.6875 -21.953125 C 41.894531 -23.785156 42.09375 -25.601562 42.28125 -27.40625 C 42.46875 -29.21875 42.628906 -30.894531 42.765625 -32.4375 C 42.898438 -33.988281 43.003906 -35.289062 43.078125 -36.34375 Z M 43.078125 -36.34375 "/></g></g><g style="fill:#ffffff;fill-opacity:1;"><g transform="translate(233.619556, 88.630032)"><path style="stroke:none" d="M 2.0625 -8.640625 C 2.007812 -9.492188 1.96875 -10.632812 1.9375 -12.0625 C 1.914062 -13.5 1.90625 -15.109375 1.90625 -16.890625 C 1.90625 -18.679688 1.921875 -20.53125 1.953125 -22.4375 C 1.992188 -24.34375 2.046875 -26.21875 2.109375 -28.0625 C 2.171875 -29.914062 2.242188 -31.628906 2.328125 -33.203125 C 2.421875 -34.773438 2.53125 -36.082031 2.65625 -37.125 C 3.90625 -37.25 5.421875 -37.34375 7.203125 -37.40625 C 8.984375 -37.46875 10.894531 -37.507812 12.9375 -37.53125 C 14.988281 -37.5625 17.039062 -37.554688 19.09375 -37.515625 C 21.15625 -37.484375 23.101562 -37.425781 24.9375 -37.34375 C 26.78125 -37.269531 28.363281 -37.1875 29.6875 -37.09375 C 29.90625 -36.769531 30.101562 -36.269531 30.28125 -35.59375 C 30.457031 -34.914062 30.550781 -34.148438 30.5625 -33.296875 C 30.570312 -32.453125 30.460938 -31.59375 30.234375 -30.71875 C 30.015625 -29.851562 29.625 -29.046875 29.0625 -28.296875 C 28.5 -27.546875 27.722656 -26.945312 26.734375 -26.5 C 25.753906 -26.050781 24.515625 -25.828125 23.015625 -25.828125 C 22.515625 -25.828125 22.050781 -25.828125 21.625 -25.828125 C 21.207031 -25.828125 20.734375 -25.828125 20.203125 -25.828125 C 19.679688 -25.828125 19.035156 -25.828125 18.265625 -25.828125 C 17.492188 -25.828125 16.507812 -25.828125 15.3125 -25.828125 C 15.3125 -25.523438 15.3125 -25.21875 15.3125 -24.90625 C 15.3125 -24.59375 15.3125 -24.25 15.3125 -23.875 C 15.851562 -23.875 16.601562 -23.882812 17.5625 -23.90625 C 18.53125 -23.9375 19.570312 -23.953125 20.6875 -23.953125 C 21.8125 -23.953125 22.914062 -23.898438 24 -23.796875 C 25.09375 -23.703125 26.035156 -23.53125 26.828125 -23.28125 C 27.578125 -21.632812 27.890625 -20.097656 27.765625 -18.671875 C 27.640625 -17.253906 27.082031 -16.09375 26.09375 -15.1875 C 25.113281 -14.289062 23.703125 -13.796875 21.859375 -13.703125 C 21.234375 -13.671875 20.644531 -13.65625 20.09375 -13.65625 C 19.550781 -13.65625 18.914062 -13.660156 18.1875 -13.671875 C 17.46875 -13.691406 16.519531 -13.703125 15.34375 -13.703125 C 15.34375 -13.296875 15.34375 -12.910156 15.34375 -12.546875 C 15.34375 -12.191406 15.34375 -11.816406 15.34375 -11.421875 C 15.46875 -11.421875 15.601562 -11.421875 15.75 -11.421875 C 15.90625 -11.421875 16.054688 -11.421875 16.203125 -11.421875 C 18.203125 -11.421875 20.203125 -11.421875 22.203125 -11.421875 C 24.210938 -11.421875 26.21875 -11.421875 28.21875 -11.421875 C 28.945312 -10.421875 29.410156 -9.3125 29.609375 -8.09375 C 29.804688 -6.882812 29.71875 -5.707031 29.34375 -4.5625 C 28.96875 -3.414062 28.253906 -2.425781 27.203125 -1.59375 C 26.160156 -0.757812 24.753906 -0.226562 22.984375 0 C 22.359375 0.0703125 21.515625 0.140625 20.453125 0.203125 C 19.390625 0.265625 18.222656 0.300781 16.953125 0.3125 C 15.679688 0.332031 14.414062 0.328125 13.15625 0.296875 C 11.894531 0.273438 10.757812 0.222656 9.75 0.140625 C 8.738281 0.0664062 7.957031 -0.03125 7.40625 -0.15625 C 5.664062 -0.601562 4.375 -1.492188 3.53125 -2.828125 C 2.695312 -4.160156 2.207031 -6.097656 2.0625 -8.640625 Z M 2.0625 -8.640625 "/></g></g><g style="fill:#ffffff;fill-opacity:1;"><g transform="translate(263.494902, 88.630032)"><path style="stroke:none" d="M 0.5625 -11.296875 C 0.863281 -12.796875 1.253906 -14.472656 1.734375 -16.328125 C 2.222656 -18.191406 2.769531 -20.101562 3.375 -22.0625 C 3.988281 -24.019531 4.613281 -25.914062 5.25 -27.75 C 5.894531 -29.582031 6.519531 -31.257812 7.125 -32.78125 C 7.738281 -34.300781 8.285156 -35.523438 8.765625 -36.453125 C 9.785156 -36.804688 11.003906 -37.128906 12.421875 -37.421875 C 13.847656 -37.722656 15.359375 -37.890625 16.953125 -37.921875 C 18.546875 -37.960938 20.128906 -37.757812 21.703125 -37.3125 C 23.273438 -36.863281 24.722656 -36.066406 26.046875 -34.921875 C 27.367188 -33.773438 28.457031 -32.164062 29.3125 -30.09375 C 29.707031 -29.09375 30.164062 -27.8125 30.6875 -26.25 C 31.207031 -24.695312 31.753906 -22.972656 32.328125 -21.078125 C 32.910156 -19.179688 33.472656 -17.226562 34.015625 -15.21875 C 34.566406 -13.207031 35.070312 -11.242188 35.53125 -9.328125 C 36 -7.421875 36.367188 -5.679688 36.640625 -4.109375 C 36.566406 -3.441406 36.21875 -2.773438 35.59375 -2.109375 C 34.96875 -1.453125 34.175781 -0.890625 33.21875 -0.421875 C 32.257812 0.0351562 31.222656 0.335938 30.109375 0.484375 C 28.992188 0.640625 27.890625 0.550781 26.796875 0.21875 C 25.703125 -0.101562 24.710938 -0.738281 23.828125 -1.6875 C 22.941406 -2.632812 22.25 -3.957031 21.75 -5.65625 C 20.570312 -5.695312 19.347656 -5.707031 18.078125 -5.6875 C 16.804688 -5.664062 15.570312 -5.664062 14.375 -5.6875 C 14.050781 -4.914062 13.742188 -4.066406 13.453125 -3.140625 C 13.171875 -2.222656 12.890625 -1.273438 12.609375 -0.296875 C 10.316406 0.546875 8.320312 0.847656 6.625 0.609375 C 4.925781 0.378906 3.554688 -0.269531 2.515625 -1.34375 C 1.484375 -2.414062 0.800781 -3.8125 0.46875 -5.53125 C 0.132812 -7.257812 0.164062 -9.179688 0.5625 -11.296875 Z M 15.828125 -16.390625 C 16.628906 -16.390625 17.40625 -16.390625 18.15625 -16.390625 C 18.90625 -16.390625 19.664062 -16.390625 20.4375 -16.390625 C 20.082031 -17.910156 19.71875 -19.410156 19.34375 -20.890625 C 18.96875 -22.378906 18.609375 -23.875 18.265625 -25.375 C 18.191406 -25.351562 18.078125 -25.34375 17.921875 -25.34375 C 17.597656 -23.863281 17.253906 -22.390625 16.890625 -20.921875 C 16.535156 -19.453125 16.179688 -17.941406 15.828125 -16.390625 Z M 15.828125 -16.390625 "/></g></g><g style="fill:#ffffff;fill-opacity:1;"><g transform="translate(299.019969, 88.630032)"><path style="stroke:none" d="M 21.265625 -21.328125 C 21.285156 -21.328125 21.300781 -21.328125 21.3125 -21.328125 C 21.320312 -21.328125 21.34375 -21.328125 21.375 -21.328125 C 21.34375 -21.328125 21.320312 -21.328125 21.3125 -21.328125 C 21.300781 -21.328125 21.285156 -21.328125 21.265625 -21.328125 Z M 8.078125 -7.21875 C 7.679688 -8.21875 7.265625 -9.503906 6.828125 -11.078125 C 6.390625 -12.648438 5.941406 -14.390625 5.484375 -16.296875 C 5.023438 -18.203125 4.582031 -20.171875 4.15625 -22.203125 C 3.726562 -24.242188 3.320312 -26.222656 2.9375 -28.140625 C 2.550781 -30.066406 2.222656 -31.816406 1.953125 -33.390625 C 2.171875 -34.179688 2.613281 -34.898438 3.28125 -35.546875 C 3.957031 -36.203125 4.757812 -36.738281 5.6875 -37.15625 C 6.613281 -37.582031 7.585938 -37.835938 8.609375 -37.921875 C 9.628906 -38.015625 10.613281 -37.898438 11.5625 -37.578125 C 12.507812 -37.253906 13.335938 -36.6875 14.046875 -35.875 C 14.765625 -35.0625 15.269531 -33.957031 15.5625 -32.5625 C 16.113281 -30.039062 16.613281 -27.492188 17.0625 -24.921875 C 17.507812 -22.359375 17.894531 -19.984375 18.21875 -17.796875 C 18.550781 -15.609375 18.800781 -13.789062 18.96875 -12.34375 C 19.019531 -12.34375 19.078125 -12.34375 19.140625 -12.34375 C 19.203125 -12.34375 19.257812 -12.34375 19.3125 -12.34375 C 19.664062 -13.820312 20.007812 -15.304688 20.34375 -16.796875 C 20.675781 -18.296875 21.019531 -19.804688 21.375 -21.328125 C 21.664062 -22.648438 21.96875 -24.125 22.28125 -25.75 C 22.59375 -27.375 22.898438 -28.960938 23.203125 -30.515625 C 23.503906 -32.078125 23.769531 -33.460938 24 -34.671875 C 24.238281 -35.878906 24.421875 -36.722656 24.546875 -37.203125 C 26.816406 -38.046875 28.773438 -38.351562 30.421875 -38.125 C 32.078125 -37.90625 33.394531 -37.253906 34.375 -36.171875 C 35.363281 -35.085938 36.015625 -33.679688 36.328125 -31.953125 C 36.640625 -30.234375 36.59375 -28.316406 36.1875 -26.203125 C 35.914062 -24.679688 35.539062 -22.988281 35.0625 -21.125 C 34.59375 -19.269531 34.070312 -17.347656 33.5 -15.359375 C 32.925781 -13.378906 32.332031 -11.457031 31.71875 -9.59375 C 31.101562 -7.738281 30.507812 -6.050781 29.9375 -4.53125 C 29.363281 -3.007812 28.84375 -1.773438 28.375 -0.828125 C 27.34375 -0.503906 26.125 -0.1875 24.71875 0.125 C 23.3125 0.4375 21.820312 0.613281 20.25 0.65625 C 18.675781 0.695312 17.113281 0.488281 15.5625 0.03125 C 14.019531 -0.414062 12.597656 -1.210938 11.296875 -2.359375 C 10.003906 -3.503906 8.929688 -5.125 8.078125 -7.21875 Z M 8.078125 -7.21875 "/></g></g><g style="fill:#ffffff;fill-opacity:1;"><g transform="translate(336.752529, 88.630032)"><path style="stroke:none" d="M 2.0625 -8.640625 C 2.007812 -9.492188 1.96875 -10.632812 1.9375 -12.0625 C 1.914062 -13.5 1.90625 -15.109375 1.90625 -16.890625 C 1.90625 -18.679688 1.921875 -20.53125 1.953125 -22.4375 C 1.992188 -24.34375 2.046875 -26.21875 2.109375 -28.0625 C 2.171875 -29.914062 2.242188 -31.628906 2.328125 -33.203125 C 2.421875 -34.773438 2.53125 -36.082031 2.65625 -37.125 C 3.90625 -37.25 5.421875 -37.34375 7.203125 -37.40625 C 8.984375 -37.46875 10.894531 -37.507812 12.9375 -37.53125 C 14.988281 -37.5625 17.039062 -37.554688 19.09375 -37.515625 C 21.15625 -37.484375 23.101562 -37.425781 24.9375 -37.34375 C 26.78125 -37.269531 28.363281 -37.1875 29.6875 -37.09375 C 29.90625 -36.769531 30.101562 -36.269531 30.28125 -35.59375 C 30.457031 -34.914062 30.550781 -34.148438 30.5625 -33.296875 C 30.570312 -32.453125 30.460938 -31.59375 30.234375 -30.71875 C 30.015625 -29.851562 29.625 -29.046875 29.0625 -28.296875 C 28.5 -27.546875 27.722656 -26.945312 26.734375 -26.5 C 25.753906 -26.050781 24.515625 -25.828125 23.015625 -25.828125 C 22.515625 -25.828125 22.050781 -25.828125 21.625 -25.828125 C 21.207031 -25.828125 20.734375 -25.828125 20.203125 -25.828125 C 19.679688 -25.828125 19.035156 -25.828125 18.265625 -25.828125 C 17.492188 -25.828125 16.507812 -25.828125 15.3125 -25.828125 C 15.3125 -25.523438 15.3125 -25.21875 15.3125 -24.90625 C 15.3125 -24.59375 15.3125 -24.25 15.3125 -23.875 C 15.851562 -23.875 16.601562 -23.882812 17.5625 -23.90625 C 18.53125 -23.9375 19.570312 -23.953125 20.6875 -23.953125 C 21.8125 -23.953125 22.914062 -23.898438 24 -23.796875 C 25.09375 -23.703125 26.035156 -23.53125 26.828125 -23.28125 C 27.578125 -21.632812 27.890625 -20.097656 27.765625 -18.671875 C 27.640625 -17.253906 27.082031 -16.09375 26.09375 -15.1875 C 25.113281 -14.289062 23.703125 -13.796875 21.859375 -13.703125 C 21.234375 -13.671875 20.644531 -13.65625 20.09375 -13.65625 C 19.550781 -13.65625 18.914062 -13.660156 18.1875 -13.671875 C 17.46875 -13.691406 16.519531 -13.703125 15.34375 -13.703125 C 15.34375 -13.296875 15.34375 -12.910156 15.34375 -12.546875 C 15.34375 -12.191406 15.34375 -11.816406 15.34375 -11.421875 C 15.46875 -11.421875 15.601562 -11.421875 15.75 -11.421875 C 15.90625 -11.421875 16.054688 -11.421875 16.203125 -11.421875 C 18.203125 -11.421875 20.203125 -11.421875 22.203125 -11.421875 C 24.210938 -11.421875 26.21875 -11.421875 28.21875 -11.421875 C 28.945312 -10.421875 29.410156 -9.3125 29.609375 -8.09375 C 29.804688 -6.882812 29.71875 -5.707031 29.34375 -4.5625 C 28.96875 -3.414062 28.253906 -2.425781 27.203125 -1.59375 C 26.160156 -0.757812 24.753906 -0.226562 22.984375 0 C 22.359375 0.0703125 21.515625 0.140625 20.453125 0.203125 C 19.390625 0.265625 18.222656 0.300781 16.953125 0.3125 C 15.679688 0.332031 14.414062 0.328125 13.15625 0.296875 C 11.894531 0.273438 10.757812 0.222656 9.75 0.140625 C 8.738281 0.0664062 7.957031 -0.03125 7.40625 -0.15625 C 5.664062 -0.601562 4.375 -1.492188 3.53125 -2.828125 C 2.695312 -4.160156 2.207031 -6.097656 2.0625 -8.640625 Z M 2.0625 -8.640625 "/></g></g><g style="fill:#ffffff;fill-opacity:1;"><g transform="translate(177.775073, 109.36071)"><path style="stroke:none" d="M 3.453125 -10.40625 C 4.359375 -10.40625 5.050781 -10.109375 5.53125 -9.515625 C 6.019531 -8.929688 6.265625 -8.097656 6.265625 -7.015625 C 6.265625 -6.046875 6.054688 -5.273438 5.640625 -4.703125 C 5.222656 -4.140625 4.628906 -3.800781 3.859375 -3.6875 L 2.671875 -3.6875 L 2.671875 0 L 0.5 0 L 0.5 -10.40625 Z M 3.5 -6.109375 C 4.070312 -6.109375 4.359375 -6.410156 4.359375 -7.015625 C 4.359375 -7.628906 4.070312 -7.945312 3.5 -7.96875 L 2.671875 -7.96875 L 2.671875 -6.109375 Z M 3.5 -6.109375 "/></g></g><g style="fill:#ffffff;fill-opacity:1;"><g transform="translate(186.49984, 109.36071)"><path style="stroke:none" d="M 5.453125 -2.609375 L 5.453125 0 L 0.5 0 L 0.5 -10.40625 L 2.671875 -10.40625 L 2.671875 -2.609375 Z M 5.453125 -2.609375 "/></g></g><g style="fill:#ffffff;fill-opacity:1;"><g transform="translate(194.620482, 109.36071)"><path style="stroke:none" d="M 4.671875 -1.484375 L 2.546875 -1.484375 L 2.234375 0 L 0.125 0 L 2.5 -10.40625 L 4.703125 -10.40625 L 7.078125 0 L 4.984375 0 Z M 4.125 -3.875 L 3.609375 -6.984375 L 3.078125 -3.875 Z M 4.125 -3.875 "/></g></g><g style="fill:#ffffff;fill-opacity:1;"><g transform="translate(204.053529, 109.36071)"><path style="stroke:none" d="M 0.5 0 L 0.5 -10.40625 L 2.265625 -10.40625 L 4.125 -5.546875 L 4.125 -10.40625 L 6.265625 -10.40625 L 6.265625 0 L 4.5 0 L 2.671875 -4.890625 L 2.671875 0 Z M 0.5 0 "/></g></g><g style="fill:#ffffff;fill-opacity:1;"><g transform="translate(213.069942, 109.36071)"><path style="stroke:none" d=""/></g></g><g style="fill:#ffffff;fill-opacity:1;"><g transform="translate(217.461691, 109.36071)"><path style="stroke:none" d="M 5.453125 -2.609375 L 5.453125 0 L 0.5 0 L 0.5 -10.40625 L 2.671875 -10.40625 L 2.671875 -2.609375 Z M 5.453125 -2.609375 "/></g></g><g style="fill:#ffffff;fill-opacity:1;"><g transform="translate(225.582333, 109.36071)"><path style="stroke:none" d="M 2.671875 -7.96875 L 2.671875 -6.421875 L 5.453125 -6.421875 L 5.453125 -4.015625 L 2.671875 -4.015625 L 2.671875 -2.453125 L 5.453125 -2.453125 L 5.453125 0 L 0.5 0 L 0.5 -10.40625 L 5.453125 -10.40625 L 5.453125 -7.96875 Z M 2.671875 -7.96875 "/></g></g><g style="fill:#ffffff;fill-opacity:1;"><g transform="translate(233.765476, 109.36071)"><path style="stroke:none" d="M 3.453125 0.125 C 4.441406 0.132812 5.195312 -0.109375 5.71875 -0.609375 C 6.25 -1.117188 6.515625 -1.851562 6.515625 -2.8125 C 6.515625 -3.425781 6.375 -3.945312 6.09375 -4.375 C 5.8125 -4.800781 5.460938 -5.164062 5.046875 -5.46875 C 4.640625 -5.769531 4.226562 -6.023438 3.8125 -6.234375 C 3.394531 -6.441406 3.039062 -6.632812 2.75 -6.8125 C 2.46875 -6.988281 2.328125 -7.175781 2.328125 -7.375 C 2.328125 -7.851562 2.675781 -8.09375 3.375 -8.09375 C 4.050781 -8.09375 4.445312 -7.628906 4.5625 -6.703125 L 6.375 -7.328125 C 6.238281 -8.359375 5.910156 -9.148438 5.390625 -9.703125 C 4.867188 -10.253906 4.195312 -10.53125 3.375 -10.53125 C 2.40625 -10.53125 1.648438 -10.28125 1.109375 -9.78125 C 0.578125 -9.28125 0.3125 -8.5625 0.3125 -7.625 C 0.3125 -7.007812 0.445312 -6.492188 0.71875 -6.078125 C 1 -5.660156 1.347656 -5.304688 1.765625 -5.015625 C 2.179688 -4.722656 2.597656 -4.472656 3.015625 -4.265625 C 3.429688 -4.054688 3.78125 -3.859375 4.0625 -3.671875 C 4.34375 -3.484375 4.484375 -3.28125 4.484375 -3.0625 C 4.484375 -2.59375 4.140625 -2.359375 3.453125 -2.359375 C 3.148438 -2.359375 2.890625 -2.472656 2.671875 -2.703125 C 2.460938 -2.941406 2.320312 -3.273438 2.25 -3.703125 L 0.453125 -3.078125 C 0.609375 -2.054688 0.945312 -1.265625 1.46875 -0.703125 C 1.988281 -0.140625 2.648438 0.132812 3.453125 0.125 Z M 3.453125 0.125 "/></g></g><g style="fill:#ffffff;fill-opacity:1;"><g transform="translate(242.906889, 109.36071)"><path style="stroke:none" d="M 3.453125 0.125 C 4.441406 0.132812 5.195312 -0.109375 5.71875 -0.609375 C 6.25 -1.117188 6.515625 -1.851562 6.515625 -2.8125 C 6.515625 -3.425781 6.375 -3.945312 6.09375 -4.375 C 5.8125 -4.800781 5.460938 -5.164062 5.046875 -5.46875 C 4.640625 -5.769531 4.226562 -6.023438 3.8125 -6.234375 C 3.394531 -6.441406 3.039062 -6.632812 2.75 -6.8125 C 2.46875 -6.988281 2.328125 -7.175781 2.328125 -7.375 C 2.328125 -7.851562 2.675781 -8.09375 3.375 -8.09375 C 4.050781 -8.09375 4.445312 -7.628906 4.5625 -6.703125 L 6.375 -7.328125 C 6.238281 -8.359375 5.910156 -9.148438 5.390625 -9.703125 C 4.867188 -10.253906 4.195312 -10.53125 3.375 -10.53125 C 2.40625 -10.53125 1.648438 -10.28125 1.109375 -9.78125 C 0.578125 -9.28125 0.3125 -8.5625 0.3125 -7.625 C 0.3125 -7.007812 0.445312 -6.492188 0.71875 -6.078125 C 1 -5.660156 1.347656 -5.304688 1.765625 -5.015625 C 2.179688 -4.722656 2.597656 -4.472656 3.015625 -4.265625 C 3.429688 -4.054688 3.78125 -3.859375 4.0625 -3.671875 C 4.34375 -3.484375 4.484375 -3.28125 4.484375 -3.0625 C 4.484375 -2.59375 4.140625 -2.359375 3.453125 -2.359375 C 3.148438 -2.359375 2.890625 -2.472656 2.671875 -2.703125 C 2.460938 -2.941406 2.320312 -3.273438 2.25 -3.703125 L 0.453125 -3.078125 C 0.609375 -2.054688 0.945312 -1.265625 1.46875 -0.703125 C 1.988281 -0.140625 2.648438 0.132812 3.453125 0.125 Z M 3.453125 0.125 "/></g></g><g style="fill:#ffffff;fill-opacity:1;"><g transform="translate(252.006636, 109.36071)"><path style="stroke:none" d=""/></g></g><g style="fill:#ffffff;fill-opacity:1;"><g transform="translate(256.398385, 109.36071)"><path style="stroke:none" d="M 2.828125 -10.40625 C 3.941406 -10.40625 4.789062 -9.953125 5.375 -9.046875 C 5.96875 -8.148438 6.265625 -6.867188 6.265625 -5.203125 C 6.265625 -3.535156 5.96875 -2.25 5.375 -1.34375 C 4.789062 -0.445312 3.941406 0 2.828125 0 L 0.5 0 L 0.5 -10.40625 Z M 3.171875 -2.609375 C 3.484375 -2.609375 3.726562 -2.832031 3.90625 -3.28125 C 4.09375 -3.726562 4.1875 -4.367188 4.1875 -5.203125 C 4.1875 -6.035156 4.09375 -6.675781 3.90625 -7.125 C 3.726562 -7.582031 3.484375 -7.8125 3.171875 -7.8125 L 2.671875 -7.8125 L 2.671875 -2.609375 Z M 3.171875 -2.609375 "/></g></g><g style="fill:#ffffff;fill-opacity:1;"><g transform="translate(265.268975, 109.36071)"><path style="stroke:none" d="M 2.671875 -10.40625 L 2.671875 0 L 0.5 0 L 0.5 -10.40625 Z M 2.671875 -10.40625 "/></g></g><g style="fill:#ffffff;fill-opacity:1;"><g transform="translate(270.66065, 109.36071)"><path style="stroke:none" d="M 3.453125 0.125 C 4.441406 0.132812 5.195312 -0.109375 5.71875 -0.609375 C 6.25 -1.117188 6.515625 -1.851562 6.515625 -2.8125 C 6.515625 -3.425781 6.375 -3.945312 6.09375 -4.375 C 5.8125 -4.800781 5.460938 -5.164062 5.046875 -5.46875 C 4.640625 -5.769531 4.226562 -6.023438 3.8125 -6.234375 C 3.394531 -6.441406 3.039062 -6.632812 2.75 -6.8125 C 2.46875 -6.988281 2.328125 -7.175781 2.328125 -7.375 C 2.328125 -7.851562 2.675781 -8.09375 3.375 -8.09375 C 4.050781 -8.09375 4.445312 -7.628906 4.5625 -6.703125 L 6.375 -7.328125 C 6.238281 -8.359375 5.910156 -9.148438 5.390625 -9.703125 C 4.867188 -10.253906 4.195312 -10.53125 3.375 -10.53125 C 2.40625 -10.53125 1.648438 -10.28125 1.109375 -9.78125 C 0.578125 -9.28125 0.3125 -8.5625 0.3125 -7.625 C 0.3125 -7.007812 0.445312 -6.492188 0.71875 -6.078125 C 1 -5.660156 1.347656 -5.304688 1.765625 -5.015625 C 2.179688 -4.722656 2.597656 -4.472656 3.015625 -4.265625 C 3.429688 -4.054688 3.78125 -3.859375 4.0625 -3.671875 C 4.34375 -3.484375 4.484375 -3.28125 4.484375 -3.0625 C 4.484375 -2.59375 4.140625 -2.359375 3.453125 -2.359375 C 3.148438 -2.359375 2.890625 -2.472656 2.671875 -2.703125 C 2.460938 -2.941406 2.320312 -3.273438 2.25 -3.703125 L 0.453125 -3.078125 C 0.609375 -2.054688 0.945312 -1.265625 1.46875 -0.703125 C 1.988281 -0.140625 2.648438 0.132812 3.453125 0.125 Z M 3.453125 0.125 "/></g></g><g style="fill:#ffffff;fill-opacity:1;"><g transform="translate(279.697896, 109.36071)"><path style="stroke:none" d="M 4.25 -4.25 C 4.164062 -3.070312 3.878906 -2.484375 3.390625 -2.484375 C 3.117188 -2.484375 2.898438 -2.71875 2.734375 -3.1875 C 2.578125 -3.65625 2.5 -4.328125 2.5 -5.203125 C 2.5 -6.078125 2.578125 -6.75 2.734375 -7.21875 C 2.898438 -7.695312 3.117188 -7.9375 3.390625 -7.9375 C 3.835938 -7.9375 4.125 -7.351562 4.25 -6.1875 L 6.296875 -6.640625 C 6.140625 -7.890625 5.8125 -8.847656 5.3125 -9.515625 C 4.8125 -10.191406 4.171875 -10.53125 3.390625 -10.53125 C 2.429688 -10.53125 1.695312 -10.066406 1.1875 -9.140625 C 0.675781 -8.222656 0.421875 -6.910156 0.421875 -5.203125 C 0.421875 -3.492188 0.675781 -2.175781 1.1875 -1.25 C 1.695312 -0.332031 2.429688 0.125 3.390625 0.125 C 4.160156 0.125 4.796875 -0.207031 5.296875 -0.875 C 5.796875 -1.550781 6.128906 -2.515625 6.296875 -3.765625 Z M 4.25 -4.25 "/></g></g><g style="fill:#ffffff;fill-opacity:1;"><g transform="translate(288.65182, 109.36071)"><path style="stroke:none" d="M 3.484375 0.125 C 2.503906 0.125 1.75 -0.332031 1.21875 -1.25 C 0.6875 -2.175781 0.421875 -3.492188 0.421875 -5.203125 C 0.421875 -6.910156 0.6875 -8.222656 1.21875 -9.140625 C 1.75 -10.066406 2.503906 -10.53125 3.484375 -10.53125 C 4.460938 -10.53125 5.21875 -10.066406 5.75 -9.140625 C 6.289062 -8.222656 6.5625 -6.910156 6.5625 -5.203125 C 6.5625 -3.492188 6.289062 -2.175781 5.75 -1.25 C 5.21875 -0.332031 4.460938 0.125 3.484375 0.125 Z M 3.5 -2.484375 C 3.800781 -2.484375 4.035156 -2.71875 4.203125 -3.1875 C 4.367188 -3.65625 4.460938 -4.328125 4.484375 -5.203125 C 4.460938 -6.078125 4.367188 -6.75 4.203125 -7.21875 C 4.035156 -7.695312 3.800781 -7.9375 3.5 -7.9375 C 3.175781 -7.9375 2.925781 -7.695312 2.75 -7.21875 C 2.582031 -6.75 2.5 -6.078125 2.5 -5.203125 C 2.5 -4.328125 2.582031 -3.65625 2.75 -3.1875 C 2.925781 -2.71875 3.175781 -2.484375 3.5 -2.484375 Z M 3.5 -2.484375 "/></g></g><g style="fill:#ffffff;fill-opacity:1;"><g transform="translate(297.293241, 109.36071)"><path style="stroke:none" d="M 2.390625 -10.40625 L 0.1875 -10.40625 L 2.75 0 L 4.828125 0 L 7.40625 -10.40625 L 5.203125 -10.40625 L 3.796875 -4.4375 Z M 2.390625 -10.40625 "/></g></g><g style="fill:#ffffff;fill-opacity:1;"><g transform="translate(307.142935, 109.36071)"><path style="stroke:none" d="M 2.671875 -7.96875 L 2.671875 -6.421875 L 5.453125 -6.421875 L 5.453125 -4.015625 L 2.671875 -4.015625 L 2.671875 -2.453125 L 5.453125 -2.453125 L 5.453125 0 L 0.5 0 L 0.5 -10.40625 L 5.453125 -10.40625 L 5.453125 -7.96875 Z M 2.671875 -7.96875 "/></g></g><g style="fill:#ffffff;fill-opacity:1;"><g transform="translate(315.326078, 109.36071)"><path style="stroke:none" d="M 5.359375 -4.5 C 5.941406 -3.90625 6.234375 -2.984375 6.234375 -1.734375 L 6.234375 0 L 4.234375 0 L 4.234375 -1.9375 C 4.234375 -2.851562 3.921875 -3.441406 3.296875 -3.703125 L 2.671875 -3.703125 L 2.671875 0 L 0.5 0 L 0.5 -10.40625 L 3.453125 -10.40625 C 4.359375 -10.40625 5.050781 -10.117188 5.53125 -9.546875 C 6.019531 -8.972656 6.265625 -8.148438 6.265625 -7.078125 C 6.265625 -5.898438 5.960938 -5.039062 5.359375 -4.5 Z M 3.5 -6.109375 C 4.070312 -6.109375 4.359375 -6.410156 4.359375 -7.015625 C 4.359375 -7.648438 4.070312 -7.96875 3.5 -7.96875 L 2.671875 -7.96875 L 2.671875 -6.109375 Z M 3.5 -6.109375 "/></g></g><g style="fill:#ffffff;fill-opacity:1;"><g transform="translate(324.259168, 109.36071)"><path style="stroke:none" d=""/></g></g><g style="fill:#ffffff;fill-opacity:1;"><g transform="translate(328.650917, 109.36071)"><path style="stroke:none" d="M 7.78125 0 L 5.625 0 L 5.625 -4.484375 L 4.625 -1.671875 L 3.671875 -1.671875 L 2.671875 -4.484375 L 2.671875 0 L 0.5 0 L 0.5 -10.40625 L 2.421875 -10.40625 L 4.140625 -4.984375 L 5.859375 -10.40625 L 7.78125 -10.40625 Z M 7.78125 0 "/></g></g><g style="fill:#ffffff;fill-opacity:1;"><g transform="translate(339.083891, 109.36071)"><path style="stroke:none" d="M 3.484375 0.125 C 2.503906 0.125 1.75 -0.332031 1.21875 -1.25 C 0.6875 -2.175781 0.421875 -3.492188 0.421875 -5.203125 C 0.421875 -6.910156 0.6875 -8.222656 1.21875 -9.140625 C 1.75 -10.066406 2.503906 -10.53125 3.484375 -10.53125 C 4.460938 -10.53125 5.21875 -10.066406 5.75 -9.140625 C 6.289062 -8.222656 6.5625 -6.910156 6.5625 -5.203125 C 6.5625 -3.492188 6.289062 -2.175781 5.75 -1.25 C 5.21875 -0.332031 4.460938 0.125 3.484375 0.125 Z M 3.5 -2.484375 C 3.800781 -2.484375 4.035156 -2.71875 4.203125 -3.1875 C 4.367188 -3.65625 4.460938 -4.328125 4.484375 -5.203125 C 4.460938 -6.078125 4.367188 -6.75 4.203125 -7.21875 C 4.035156 -7.695312 3.800781 -7.9375 3.5 -7.9375 C 3.175781 -7.9375 2.925781 -7.695312 2.75 -7.21875 C 2.582031 -6.75 2.5 -6.078125 2.5 -5.203125 C 2.5 -4.328125 2.582031 -3.65625 2.75 -3.1875 C 2.925781 -2.71875 3.175781 -2.484375 3.5 -2.484375 Z M 3.5 -2.484375 "/></g></g><g style="fill:#ffffff;fill-opacity:1;"><g transform="translate(348.183637, 109.36071)"><path style="stroke:none" d="M 5.359375 -4.5 C 5.941406 -3.90625 6.234375 -2.984375 6.234375 -1.734375 L 6.234375 0 L 4.234375 0 L 4.234375 -1.9375 C 4.234375 -2.851562 3.921875 -3.441406 3.296875 -3.703125 L 2.671875 -3.703125 L 2.671875 0 L 0.5 0 L 0.5 -10.40625 L 3.453125 -10.40625 C 4.359375 -10.40625 5.050781 -10.117188 5.53125 -9.546875 C 6.019531 -8.972656 6.265625 -8.148438 6.265625 -7.078125 C 6.265625 -5.898438 5.960938 -5.039062 5.359375 -4.5 Z M 3.5 -6.109375 C 4.070312 -6.109375 4.359375 -6.410156 4.359375 -7.015625 C 4.359375 -7.648438 4.070312 -7.96875 3.5 -7.96875 L 2.671875 -7.96875 L 2.671875 -6.109375 Z M 3.5 -6.109375 "/></g></g><g style="fill:#ffffff;fill-opacity:1;"><g transform="translate(357.116728, 109.36071)"><path style="stroke:none" d="M 2.671875 -7.96875 L 2.671875 -6.421875 L 5.453125 -6.421875 L 5.453125 -4.015625 L 2.671875 -4.015625 L 2.671875 -2.453125 L 5.453125 -2.453125 L 5.453125 0 L 0.5 0 L 0.5 -10.40625 L 5.453125 -10.40625 L 5.453125 -7.96875 Z M 2.671875 -7.96875 "/></g></g><g clip-rule="nonzero" clip-path="url(#1eb6a469b0)"><g clip-rule="nonzero" clip-path="url(#e1155e4d43)"><g clip-rule="nonzero" clip-path="url(#51e475873a)"><path style=" stroke:none;fill-rule:nonzero;fill:#e6d055;fill-opacity:1;" d="M 38.960938 69.285156 C 37.964844 70.539062 38.246094 72.328125 38.058594 73.921875 C 37.761719 76.484375 36.035156 78.835938 33.679688 79.890625 C 30.875 81.140625 27.652344 80.558594 24.578125 80.527344 C 23.453125 80.519531 22.304688 80.582031 21.230469 80.25 C 19.261719 79.640625 17.84375 77.664062 17.75 75.605469 C 17.671875 73.816406 18.476562 72.019531 18.089844 70.269531 C 17.929688 69.539062 17.570312 68.871094 17.261719 68.1875 C 16.386719 66.222656 15.957031 63.988281 16.492188 61.910156 C 17.027344 59.828125 18.660156 57.960938 20.773438 57.550781 C 21.800781 57.347656 22.878906 57.492188 23.90625 57.277344 C 25.949219 56.847656 27.515625 55.058594 29.570312 54.699219 C 30.609375 54.515625 31.679688 54.71875 32.675781 55.066406 C 33.324219 55.292969 33.945312 55.578125 34.542969 55.925781 C 35.140625 56.269531 35.695312 56.667969 36.21875 57.121094 C 36.738281 57.570312 37.210938 58.066406 37.640625 58.605469 C 38.066406 59.148438 38.4375 59.722656 38.757812 60.332031 C 39.074219 60.945312 39.332031 61.578125 39.53125 62.238281 C 39.730469 62.898438 39.863281 63.570312 39.933594 64.257812 C 40.003906 64.941406 40.011719 65.628906 39.953125 66.3125 C 39.894531 67 39.773438 67.675781 39.585938 68.335938 "/></g></g></g></g></svg>