<svg xmlns="http://www.w3.org/2000/svg" xmlns:xlink="http://www.w3.org/1999/xlink" width="500" zoomAndPan="magnify" viewBox="0 0 375 374.999991" height="500" preserveAspectRatio="xMidYMid meet" version="1.2"><defs><clipPath id="5ab63a78f7"><path d="M 43 20 L 328 20 L 328 332 L 43 332 Z M 43 20 "/></clipPath><clipPath id="12275ffce9"><path d="M 132.839844 404.914062 L -42.058594 133.957031 L 242.132812 -49.480469 L 417.027344 221.476562 Z M 132.839844 404.914062 "/></clipPath><clipPath id="daf9a239e4"><path d="M 132.839844 404.914062 L -42.058594 133.957031 L 242.132812 -49.480469 L 417.027344 221.476562 Z M 132.839844 404.914062 "/></clipPath></defs><g id="729e9230b3"><g clip-rule="nonzero" clip-path="url(#5ab63a78f7)"><g clip-rule="nonzero" clip-path="url(#12275ffce9)"><g clip-rule="nonzero" clip-path="url(#daf9a239e4)"><path style=" stroke:none;fill-rule:nonzero;fill:#2e5a6b;fill-opacity:1;" d="M 315.066406 195.601562 C 303.15625 210.601562 306.511719 232.011719 304.296875 251.050781 C 300.75 281.699219 280.09375 309.828125 251.90625 322.4375 C 218.375 337.371094 179.820312 330.421875 143.082031 330.066406 C 129.636719 329.929688 115.875 330.6875 103.046875 326.710938 C 79.5 319.417969 62.523438 295.789062 61.425781 271.171875 C 60.476562 249.773438 70.089844 228.277344 65.480469 207.359375 C 63.542969 198.632812 59.253906 190.625 55.578125 182.46875 C 45.113281 159 39.960938 132.277344 46.359375 107.382812 C 52.757812 82.488281 72.324219 60.152344 97.554688 55.25 C 109.878906 52.855469 122.742188 54.574219 135.046875 52.011719 C 159.449219 46.835938 178.191406 25.480469 202.757812 21.152344 C 215.183594 18.964844 228.011719 21.398438 239.894531 25.539062 C 241.832031 26.21875 243.753906 26.945312 245.660156 27.714844 C 247.5625 28.484375 249.445312 29.296875 251.3125 30.15625 C 253.179688 31.011719 255.023438 31.914062 256.84375 32.859375 C 258.667969 33.804688 260.46875 34.792969 262.246094 35.824219 C 264.019531 36.851562 265.773438 37.925781 267.5 39.035156 C 269.226562 40.148438 270.921875 41.300781 272.59375 42.496094 C 274.265625 43.6875 275.910156 44.917969 277.523438 46.1875 C 279.136719 47.457031 280.71875 48.765625 282.273438 50.109375 C 283.824219 51.453125 285.34375 52.835938 286.832031 54.25 C 288.320312 55.667969 289.773438 57.117188 291.191406 58.601562 C 292.609375 60.085938 293.992188 61.601562 295.339844 63.152344 C 296.6875 64.703125 297.996094 66.28125 299.269531 67.894531 C 300.542969 69.503906 301.777344 71.144531 302.972656 72.816406 C 304.167969 74.484375 305.324219 76.183594 306.4375 77.90625 C 307.554688 79.628906 308.628906 81.378906 309.664062 83.152344 C 310.695312 84.929688 311.6875 86.726562 312.636719 88.546875 C 313.582031 90.367188 314.488281 92.210938 315.351562 94.074219 C 316.210938 95.9375 317.03125 97.824219 317.800781 99.726562 C 318.574219 101.628906 319.304688 103.546875 319.984375 105.484375 C 320.667969 107.421875 321.304688 109.371094 321.894531 111.339844 C 322.484375 113.304688 323.03125 115.285156 323.527344 117.277344 C 324.023438 119.269531 324.476562 121.273438 324.878906 123.285156 C 325.28125 125.300781 325.636719 127.320312 325.945312 129.351562 C 326.25 131.382812 326.511719 133.417969 326.722656 135.460938 C 326.933594 137.503906 327.097656 139.550781 327.214844 141.601562 C 327.328125 143.652344 327.394531 145.703125 327.414062 147.757812 C 327.433594 149.808594 327.402344 151.863281 327.328125 153.914062 C 327.25 155.964844 327.121094 158.015625 326.949219 160.0625 C 326.773438 162.105469 326.550781 164.148438 326.28125 166.183594 C 326.007812 168.21875 325.691406 170.246094 325.324219 172.269531 C 324.957031 174.289062 324.542969 176.300781 324.082031 178.300781 C 323.621094 180.300781 323.113281 182.289062 322.558594 184.269531 "/></g></g></g><g style="fill:#ffffff;fill-opacity:1;"><g transform="translate(74.857874, 255.638849)"><path style="stroke:none" d="M 104.46875 -149.125 C 104.46875 -138.09375 104.050781 -127.132812 103.21875 -116.25 C 102.394531 -105.375 101.984375 -94.421875 101.984375 -83.390625 C 101.984375 -74.484375 102.242188 -65.644531 102.765625 -56.875 C 103.296875 -48.113281 103.5625 -39.28125 103.5625 -30.375 C 103.5625 -27.945312 103.484375 -25.035156 103.328125 -21.640625 C 103.179688 -18.242188 102.691406 -14.957031 101.859375 -11.78125 C 101.035156 -8.613281 99.675781 -5.894531 97.78125 -3.625 C 95.894531 -1.363281 93.21875 -0.234375 89.75 -0.234375 C 85.207031 -0.234375 81.460938 -1.929688 78.515625 -5.328125 C 75.578125 -8.722656 73.726562 -12.535156 72.96875 -16.765625 C 70.101562 -11.328125 65.945312 -6.71875 60.5 -2.9375 C 55.0625 0.832031 49.171875 2.71875 42.828125 2.71875 C 36.035156 2.71875 30.179688 0.378906 25.265625 -4.296875 C 20.359375 -8.984375 16.28125 -14.648438 13.03125 -21.296875 C 9.78125 -27.953125 7.363281 -34.90625 5.78125 -42.15625 C 4.195312 -49.40625 3.40625 -55.675781 3.40625 -60.96875 C 3.40625 -64.738281 3.628906 -69.039062 4.078125 -73.875 C 4.535156 -78.707031 5.328125 -83.617188 6.453125 -88.609375 C 7.585938 -93.597656 9.0625 -98.46875 10.875 -103.21875 C 12.6875 -107.976562 14.988281 -112.25 17.78125 -116.03125 C 20.582031 -119.8125 23.910156 -122.832031 27.765625 -125.09375 C 31.617188 -127.363281 36.035156 -128.5 41.015625 -128.5 C 46.453125 -128.5 51.664062 -126.910156 56.65625 -123.734375 C 61.644531 -120.566406 65.421875 -116.640625 67.984375 -111.953125 L 70.03125 -147.984375 C 70.175781 -150.859375 70.398438 -154.21875 70.703125 -158.0625 C 71.003906 -161.914062 71.644531 -165.582031 72.625 -169.0625 C 73.613281 -172.539062 75.164062 -175.488281 77.28125 -177.90625 C 79.394531 -180.320312 82.488281 -181.53125 86.5625 -181.53125 C 90.945312 -181.53125 94.347656 -180.472656 96.765625 -178.359375 C 99.179688 -176.242188 100.957031 -173.5625 102.09375 -170.3125 C 103.226562 -167.0625 103.90625 -163.546875 104.125 -159.765625 C 104.351562 -155.992188 104.46875 -152.445312 104.46875 -149.125 Z M 67.53125 -48.5 C 67.53125 -51.96875 67.453125 -55.363281 67.296875 -58.6875 C 67.148438 -62.019531 67.15625 -65.421875 67.3125 -68.890625 C 66.40625 -70.859375 65.347656 -73.007812 64.140625 -75.34375 C 62.929688 -77.6875 61.457031 -79.878906 59.71875 -81.921875 C 57.976562 -83.960938 56.050781 -85.660156 53.9375 -87.015625 C 51.820312 -88.378906 49.554688 -89.0625 47.140625 -89.0625 C 44.421875 -89.0625 42.226562 -88.226562 40.5625 -86.5625 C 38.90625 -84.90625 37.695312 -82.90625 36.9375 -80.5625 C 36.1875 -78.21875 35.695312 -75.6875 35.46875 -72.96875 C 35.238281 -70.25 35.125 -67.910156 35.125 -65.953125 C 35.125 -64.140625 35.273438 -61.457031 35.578125 -57.90625 C 35.878906 -54.351562 36.445312 -50.765625 37.28125 -47.140625 C 38.113281 -43.515625 39.285156 -40.34375 40.796875 -37.625 C 42.304688 -34.90625 44.34375 -33.546875 46.90625 -33.546875 C 48.875 -33.546875 50.835938 -33.957031 52.796875 -34.78125 C 54.765625 -35.613281 56.617188 -36.671875 58.359375 -37.953125 C 60.097656 -39.242188 61.757812 -40.679688 63.34375 -42.265625 C 64.925781 -43.847656 66.320312 -45.320312 67.53125 -46.6875 Z M 67.53125 -48.5 "/></g></g><g style="fill:#ffffff;fill-opacity:1;"><g transform="translate(178.640294, 249.514041)"><path style="stroke:none" d="M 115.71875 -105.3125 C 115.71875 -98.132812 115.238281 -91.046875 114.28125 -84.046875 C 113.320312 -77.054688 112.1875 -70.148438 110.875 -63.328125 C 110.519531 -61.535156 109.984375 -58.632812 109.265625 -54.625 C 108.546875 -50.625 107.675781 -46.171875 106.65625 -41.265625 C 105.644531 -36.359375 104.421875 -31.273438 102.984375 -26.015625 C 101.546875 -20.753906 99.957031 -15.96875 98.21875 -11.65625 C 96.488281 -7.351562 94.578125 -3.796875 92.484375 -0.984375 C 90.390625 1.828125 88.148438 3.234375 85.765625 3.234375 C 83.367188 3.234375 81.0625 2.035156 78.84375 -0.359375 C 76.632812 -2.753906 74.601562 -5.773438 72.75 -9.421875 C 70.894531 -13.066406 69.191406 -17.160156 67.640625 -21.703125 C 66.085938 -26.253906 64.738281 -30.648438 63.59375 -34.890625 C 62.457031 -39.140625 61.5 -43.023438 60.71875 -46.546875 C 59.945312 -50.078125 59.382812 -52.742188 59.03125 -54.546875 C 58.550781 -52.984375 57.800781 -50.5 56.78125 -47.09375 C 55.769531 -43.6875 54.484375 -39.859375 52.921875 -35.609375 C 51.367188 -31.367188 49.632812 -27.035156 47.71875 -22.609375 C 45.8125 -18.179688 43.8125 -14.113281 41.71875 -10.40625 C 39.625 -6.695312 37.4375 -3.644531 35.15625 -1.25 C 32.882812 1.132812 30.613281 2.328125 28.34375 2.328125 C 25.351562 2.328125 22.722656 1.015625 20.453125 -1.609375 C 18.179688 -4.242188 16.265625 -7.625 14.703125 -11.75 C 13.148438 -15.875 11.835938 -20.476562 10.765625 -25.5625 C 9.691406 -30.644531 8.851562 -35.664062 8.25 -40.625 C 7.65625 -45.59375 7.175781 -50.226562 6.8125 -54.53125 C 6.457031 -58.84375 6.21875 -62.253906 6.09375 -64.765625 C 5.738281 -70.503906 5.410156 -76.125 5.109375 -81.625 C 4.816406 -87.132812 4.671875 -92.757812 4.671875 -98.5 C 4.671875 -100.53125 4.726562 -103.3125 4.84375 -106.84375 C 4.96875 -110.375 5.414062 -113.84375 6.1875 -117.25 C 6.96875 -120.65625 8.164062 -123.644531 9.78125 -126.21875 C 11.394531 -128.789062 13.753906 -130.195312 16.859375 -130.4375 C 19.492188 -130.550781 21.765625 -129.472656 23.671875 -127.203125 C 25.585938 -124.929688 27.203125 -121.910156 28.515625 -118.140625 C 29.835938 -114.367188 30.882812 -110.179688 31.65625 -105.578125 C 32.4375 -100.972656 33.035156 -96.519531 33.453125 -92.21875 C 33.878906 -87.914062 34.148438 -83.96875 34.265625 -80.375 C 34.390625 -76.789062 34.390625 -74.160156 34.265625 -72.484375 L 34.09375 -67.8125 C 34.445312 -69.375 35.070312 -71.828125 35.96875 -75.171875 C 36.863281 -78.523438 37.96875 -82.320312 39.28125 -86.5625 C 40.601562 -90.8125 42.007812 -95.175781 43.5 -99.65625 C 45 -104.144531 46.585938 -108.242188 48.265625 -111.953125 C 49.941406 -115.660156 51.613281 -118.738281 53.28125 -121.1875 C 54.957031 -123.644531 56.570312 -124.929688 58.125 -125.046875 C 60.164062 -125.171875 62.109375 -123.972656 63.953125 -121.453125 C 65.804688 -118.941406 67.484375 -115.679688 68.984375 -111.671875 C 70.484375 -107.671875 71.828125 -103.21875 73.015625 -98.3125 C 74.210938 -93.414062 75.257812 -88.660156 76.15625 -84.046875 C 77.050781 -79.441406 77.738281 -75.285156 78.21875 -71.578125 C 78.695312 -67.878906 79.054688 -65.25 79.296875 -63.6875 C 79.421875 -65.601562 79.722656 -68.625 80.203125 -72.75 C 80.679688 -76.875 81.335938 -81.476562 82.171875 -86.5625 C 83.003906 -91.644531 84.046875 -96.847656 85.296875 -102.171875 C 86.554688 -107.492188 88.023438 -112.367188 89.703125 -116.796875 C 91.378906 -121.222656 93.289062 -124.84375 95.4375 -127.65625 C 97.59375 -130.46875 99.988281 -131.875 102.625 -131.875 C 105.613281 -131.875 108.003906 -130.882812 109.796875 -128.90625 C 111.585938 -126.9375 112.898438 -124.546875 113.734375 -121.734375 C 114.578125 -118.921875 115.117188 -115.988281 115.359375 -112.9375 C 115.597656 -109.882812 115.71875 -107.34375 115.71875 -105.3125 Z M 115.71875 -105.3125 "/></g></g></g></svg>